<svg width="425" height="133" viewBox="0 0 425 133" fill="none" xmlns="http://www.w3.org/2000/svg">
<path d="M425 133H0C0 90.4741 95.1395 56 212.5 56C329.861 56 425 90.4741 425 133Z" fill="url(#paint0_radial_33222_339814)"/>
<path d="M180.023 86.4144L167.423 85.1918L167.732 90.1823L180.326 91.3017L180.023 86.4144Z" fill="url(#paint1_linear_33222_339814)"/>
<path d="M189.179 81.2292L182.138 80.1279L182.478 85.6173L189.532 86.9301L189.179 81.2292Z" fill="url(#paint2_linear_33222_339814)"/>
<path d="M191.513 53.5855L183.67 72.5185L187.194 72.8009L191.853 59.075L191.513 53.5855Z" fill="url(#paint3_linear_33222_339814)"/>
<path d="M192.033 73.4217L189.179 81.2292L189.532 86.9301L192.298 77.6974L192.033 73.4217Z" fill="url(#paint4_linear_33222_339814)"/>
<path d="M171.013 78.4567L148.326 76.1319L148.65 81.3578L168.344 83.6319L171.013 78.4567Z" fill="url(#paint5_linear_33222_339814)"/>
<path d="M191.513 53.5855L176.942 52.8972L151.492 70.6499L148.326 76.1319L171.013 78.4567L168.344 83.6319L167.423 85.1918L180.023 86.4144L182.138 80.1279L189.179 81.2292L192.033 73.4217L187.194 72.8009L183.67 72.5185L191.513 53.5855Z" fill="url(#paint6_linear_33222_339814)"/>
<path d="M182.138 80.1279L180.023 86.4144L180.326 91.3017L182.478 85.6173L182.138 80.1279Z" fill="url(#paint7_linear_33222_339814)"/>
<path fill-rule="evenodd" clip-rule="evenodd" d="M180.247 57.7021L163.492 70.2631L170.54 70.828L177.156 64.4062L180.247 57.7021Z" fill="url(#paint8_linear_33222_339814)"/>
<path d="M174.065 71.1104L177.156 64.4062L170.54 70.828L174.065 71.1104Z" fill="#86ACEB"/>
<rect x="281.5" y="83" width="2" height="5" fill="#3B4F8C"/>
<path d="M278 82L282.5 67V86L278 82Z" fill="#A1C0F9"/>
<path d="M282.5 86V67L288 81.5L282.5 86Z" fill="#6993E7"/>
<rect x="142.451" y="94.2002" width="1.4" height="3.5" fill="#3B4F8C"/>
<path d="M140 93.5L143.15 83V96.3L140 93.5Z" fill="#A1C0F9"/>
<path d="M143.15 96.3V83L147 93.15L143.15 96.3Z" fill="#6993E7"/>
<rect x="294.75" y="72" width="1" height="2.5" fill="#3B4F8C"/>
<path d="M293 71.5L295.25 64V73.5L293 71.5Z" fill="#A1C0F9"/>
<path d="M295.25 73.5V64L298 71.25L295.25 73.5Z" fill="#6993E7"/>
<g filter="url(#filter0_ii_33222_339814)">
<ellipse cx="224" cy="76.5" rx="29" ry="8.5" fill="url(#paint9_linear_33222_339814)"/>
</g>
<g filter="url(#filter1_f_33222_339814)">
<path d="M228 68V71.5M228 88.5V79M228 71.5L239 74.5M228 71.5V79M228 79L238 81.5M239 70V90.5" stroke="#5170B8" stroke-width="1.5"/>
</g>
<path fill-rule="evenodd" clip-rule="evenodd" d="M282.084 22.7037L268.477 15L237.374 32.8148L233 39.5556L250.495 51.1111L245.15 58.8148L254.383 65.0741L259.729 57.3704L262.645 59.7778L264.103 60.7407L269.935 51.5926L267.991 50.6296L265.075 48.7037L282.084 22.7037ZM248.551 37.1481L266.047 26.5556L261.901 32.8148L255.841 41.963L250.981 38.7531L248.551 37.1481Z" fill="url(#paint10_linear_33222_339814)"/>
<path d="M282.084 22.7037L265.075 48.7037L267.991 50.6296L285 25.1111L282.084 22.7037Z" fill="url(#paint11_linear_33222_339814)"/>
<path d="M259.729 57.3704L254.383 65.0741L257.299 67L262.645 59.7778L259.729 57.3704Z" fill="url(#paint12_linear_33222_339814)"/>
<path d="M266.047 26.5556L248.551 37.1481L250.981 38.7531L261.901 32.8148L266.047 26.5556Z" fill="url(#paint13_linear_33222_339814)"/>
<path d="M269.935 51.5926L264.103 60.7407L267.019 62.6667L272.85 53.5185L269.935 51.5926Z" fill="url(#paint14_linear_33222_339814)"/>
<path fill-rule="evenodd" clip-rule="evenodd" d="M227.035 65.0029L228.53 65.1247L228.107 70.3118L237.46 72.509L237.918 66.8936L239.413 67.0154L236.813 98.9096L235.318 98.7877L236.396 85.5565L227.049 83.2897L225.93 97.0189L224.435 96.897L225.573 82.9319L225.569 82.9308L225.576 82.9024L226.036 77.2591L226.001 77.2508L226.055 77.028L226.548 70.9728L226.543 70.9715L226.551 70.9348L227.035 65.0029ZM227.131 82.2807L236.479 84.5475L236.861 79.8543L227.512 77.6129L227.131 82.2807ZM237.378 73.5169L236.944 78.8456L227.594 76.6043L228.025 71.3197L237.378 73.5169Z" fill="url(#paint15_linear_33222_339814)"/>
<path fill-rule="evenodd" clip-rule="evenodd" d="M226.299 84.9709C225.8 84.9824 225.297 84.9901 224.791 84.9941L224.928 83.4368L224.924 83.4357L224.931 83.4074L225.427 77.7676L225.392 77.7591L225.447 77.5364L225.98 71.4842L225.974 71.4829L225.983 71.4485L226.505 65.5176L227.999 65.649L227.543 70.8332L236.881 73.0901L237.375 67.4778L238.869 67.6092L237.424 84.0336C236.924 84.1102 236.415 84.1828 235.899 84.251L236.235 80.432L226.901 78.1309L226.49 82.7957L233.464 84.5342C232.455 84.6363 231.42 84.7226 230.363 84.7919L226.401 83.8042L226.299 84.9709ZM236.324 79.4239L236.792 74.0974L227.454 71.8405L226.989 77.1228L236.324 79.4239Z" fill="url(#paint16_linear_33222_339814)"/>
<path d="M238 84C228.5 85 226.5 85 224 85L221.5 101L242 102L240.5 83.5L238 84Z" fill="url(#paint17_linear_33222_339814)"/>
<ellipse rx="7" ry="2" transform="matrix(1 0 0 -1 260 75)" fill="#CBDEFF"/>
<ellipse rx="13.4988" ry="10.208" transform="matrix(0.941768 -0.336262 -0.336262 -0.941768 196.544 14.153)" fill="url(#paint18_linear_33222_339814)"/>
<ellipse rx="28.6744" ry="8.13155" transform="matrix(0.941768 -0.336262 -0.336262 -0.941768 199.739 18.6979)" fill="url(#paint19_linear_33222_339814)"/>
<ellipse rx="13.4988" ry="4.20752" transform="matrix(0.941768 -0.336262 -0.336262 -0.941768 201.446 22.6361)" fill="#E9F1FF"/>
<ellipse rx="1.93165" ry="1.51873" transform="matrix(0.941768 -0.336262 -0.336262 -0.941768 182.047 25.8352)" fill="#E9F1FF"/>
<ellipse rx="1.93165" ry="1.51873" transform="matrix(0.941768 -0.336262 -0.336262 -0.941768 192.654 17.4309)" fill="#E9F1FF"/>
<ellipse rx="1.93165" ry="1.51873" transform="matrix(0.941768 -0.336262 -0.336262 -0.941768 207.752 12.1643)" fill="#E9F1FF"/>
<ellipse rx="1.93165" ry="1.51873" transform="matrix(0.941768 -0.336262 -0.336262 -0.941768 218.912 12.301)" fill="#E9F1FF"/>
<path d="M214.077 17.8556L253 76L195 77L188.925 27.4941C188.857 27.3025 188.884 27.1628 188.884 27.1628L188.925 27.4941C189.078 27.9262 189.714 28.6223 192.233 28.5753C194.811 28.5271 199.263 28.1204 204.025 26.1831C208.787 24.2459 211.892 21.8728 213.409 20.1455C214.332 19.0957 214.268 18.3103 214.077 17.8556L213.776 17.4065C213.776 17.4065 213.953 17.5622 214.077 17.8556Z" fill="url(#paint20_linear_33222_339814)" fill-opacity="0.49"/>
<defs>
<filter id="filter0_ii_33222_339814" x="195" y="68" width="58" height="21" filterUnits="userSpaceOnUse" color-interpolation-filters="sRGB">
<feFlood flood-opacity="0" result="BackgroundImageFix"/>
<feBlend mode="normal" in="SourceGraphic" in2="BackgroundImageFix" result="shape"/>
<feColorMatrix in="SourceAlpha" type="matrix" values="0 0 0 0 0 0 0 0 0 0 0 0 0 0 0 0 0 0 127 0" result="hardAlpha"/>
<feOffset dy="4"/>
<feGaussianBlur stdDeviation="2"/>
<feComposite in2="hardAlpha" operator="arithmetic" k2="-1" k3="1"/>
<feColorMatrix type="matrix" values="0 0 0 0 0.834722 0 0 0 0 0.871083 0 0 0 0 1 0 0 0 0.25 0"/>
<feBlend mode="normal" in2="shape" result="effect1_innerShadow_33222_339814"/>
<feColorMatrix in="SourceAlpha" type="matrix" values="0 0 0 0 0 0 0 0 0 0 0 0 0 0 0 0 0 0 127 0" result="hardAlpha"/>
<feOffset dy="0.5"/>
<feGaussianBlur stdDeviation="0.25"/>
<feComposite in2="hardAlpha" operator="arithmetic" k2="-1" k3="1"/>
<feColorMatrix type="matrix" values="0 0 0 0 1 0 0 0 0 1 0 0 0 0 1 0 0 0 0.52 0"/>
<feBlend mode="normal" in2="effect1_innerShadow_33222_339814" result="effect2_innerShadow_33222_339814"/>
</filter>
<filter id="filter1_f_33222_339814" x="226.25" y="67" width="14.5" height="24.5" filterUnits="userSpaceOnUse" color-interpolation-filters="sRGB">
<feFlood flood-opacity="0" result="BackgroundImageFix"/>
<feBlend mode="normal" in="SourceGraphic" in2="BackgroundImageFix" result="shape"/>
<feGaussianBlur stdDeviation="0.5" result="effect1_foregroundBlur_33222_339814"/>
</filter>
<radialGradient id="paint0_radial_33222_339814" cx="0" cy="0" r="1" gradientUnits="userSpaceOnUse" gradientTransform="translate(213.278 60.9149) rotate(90.6187) scale(72.0893 397.857)">
<stop offset="0.124566" stop-color="#CBDEFF"/>
<stop offset="0.293125" stop-color="#C9DEFF" stop-opacity="0.47"/>
<stop offset="0.659421" stop-color="#CFE2FF" stop-opacity="0"/>
</radialGradient>
<linearGradient id="paint1_linear_33222_339814" x1="175.671" y1="91.5903" x2="175.299" y2="83.471" gradientUnits="userSpaceOnUse">
<stop stop-color="#5689FF"/>
<stop offset="1" stop-color="#92B3FF"/>
</linearGradient>
<linearGradient id="paint2_linear_33222_339814" x1="181.378" y1="88.2332" x2="181.007" y2="79.6866" gradientUnits="userSpaceOnUse">
<stop stop-color="#5689FF"/>
<stop offset="0.988731" stop-color="#92B3FF"/>
</linearGradient>
<linearGradient id="paint3_linear_33222_339814" x1="190.667" y1="54.6205" x2="180.292" y2="91.4898" gradientUnits="userSpaceOnUse">
<stop stop-color="#8FB2FF"/>
<stop offset="0.569984" stop-color="#3261BD"/>
</linearGradient>
<linearGradient id="paint4_linear_33222_339814" x1="182.369" y1="74.8712" x2="179.788" y2="91.3434" gradientUnits="userSpaceOnUse">
<stop stop-color="#3261BD"/>
<stop offset="0.570882" stop-color="#3C7AFF"/>
</linearGradient>
<linearGradient id="paint5_linear_33222_339814" x1="168.876" y1="84.7179" x2="169.099" y2="75.2564" gradientUnits="userSpaceOnUse">
<stop offset="0.135625" stop-color="#638DEE"/>
<stop offset="1" stop-color="#1259FF" stop-opacity="0.36"/>
</linearGradient>
<linearGradient id="paint6_linear_33222_339814" x1="196.076" y1="123.247" x2="206.814" y2="46.0448" gradientUnits="userSpaceOnUse">
<stop stop-color="#89ACFF"/>
<stop offset="0.885471" stop-color="#C6D7FF"/>
</linearGradient>
<linearGradient id="paint7_linear_33222_339814" x1="182.369" y1="74.8712" x2="179.788" y2="91.3434" gradientUnits="userSpaceOnUse">
<stop offset="0.615426" stop-color="#3261BD"/>
<stop offset="0.815688" stop-color="#3C7AFF"/>
</linearGradient>
<linearGradient id="paint8_linear_33222_339814" x1="173.49" y1="75.0505" x2="173.369" y2="57.9157" gradientUnits="userSpaceOnUse">
<stop stop-color="#2456B9"/>
<stop offset="0.670695" stop-color="#80A5F5"/>
</linearGradient>
<linearGradient id="paint9_linear_33222_339814" x1="220.241" y1="95.5" x2="229.646" y2="57.6014" gradientUnits="userSpaceOnUse">
<stop stop-color="#487FFF"/>
<stop offset="0.23135" stop-color="#6386D6"/>
<stop offset="0.63346" stop-color="#9EBBFF"/>
</linearGradient>
<linearGradient id="paint10_linear_33222_339814" x1="262.645" y1="80.963" x2="256.279" y2="12.2521" gradientUnits="userSpaceOnUse">
<stop stop-color="#90B1FF"/>
<stop offset="1" stop-color="#D4E1FF"/>
</linearGradient>
<linearGradient id="paint11_linear_33222_339814" x1="283.939" y1="18.4667" x2="264.94" y2="65.5428" gradientUnits="userSpaceOnUse">
<stop offset="0.218908" stop-color="#8FB2FF"/>
<stop offset="0.708579" stop-color="#3261BD"/>
</linearGradient>
<linearGradient id="paint12_linear_33222_339814" x1="283.939" y1="18.4667" x2="264.94" y2="65.5428" gradientUnits="userSpaceOnUse">
<stop offset="0.218908" stop-color="#8FB2FF"/>
<stop offset="0.708579" stop-color="#3261BD"/>
</linearGradient>
<linearGradient id="paint13_linear_33222_339814" x1="274.308" y1="11.6296" x2="256.349" y2="49.7476" gradientUnits="userSpaceOnUse">
<stop offset="0.218908" stop-color="#8FB2FF"/>
<stop offset="0.708579" stop-color="#3261BD"/>
</linearGradient>
<linearGradient id="paint14_linear_33222_339814" x1="283.542" y1="18.8519" x2="264.964" y2="65.5736" gradientUnits="userSpaceOnUse">
<stop offset="0.558132" stop-color="#8FB2FF"/>
<stop offset="0.994056" stop-color="#1B57CC"/>
</linearGradient>
<linearGradient id="paint15_linear_33222_339814" x1="233.003" y1="65.4894" x2="230.321" y2="98.3804" gradientUnits="userSpaceOnUse">
<stop offset="0.151406" stop-color="#E7EEFF"/>
<stop offset="0.924237" stop-color="#7CA4FF"/>
</linearGradient>
<linearGradient id="paint16_linear_33222_339814" x1="231" y1="62.5" x2="231.023" y2="98" gradientUnits="userSpaceOnUse">
<stop stop-color="#C4D6FF"/>
<stop offset="0.696241" stop-color="#7CA4FF"/>
</linearGradient>
<linearGradient id="paint17_linear_33222_339814" x1="231.75" y1="83.5" x2="231.75" y2="102" gradientUnits="userSpaceOnUse">
<stop stop-color="#E9F2FF"/>
<stop offset="1" stop-color="#F9FCFF"/>
</linearGradient>
<linearGradient id="paint18_linear_33222_339814" x1="25.7881" y1="17.2005" x2="5.76964" y2="3.46101" gradientUnits="userSpaceOnUse">
<stop stop-color="#5688FF"/>
<stop offset="0.721002" stop-color="#A9C3FF"/>
</linearGradient>
<linearGradient id="paint19_linear_33222_339814" x1="52.7684" y1="-1.56722" x2="0.566216" y2="18.2458" gradientUnits="userSpaceOnUse">
<stop stop-color="#A6C1FF"/>
<stop offset="1" stop-color="#CEDDFF"/>
</linearGradient>
<linearGradient id="paint20_linear_33222_339814" x1="222.698" y1="16.8292" x2="226.652" y2="77.9379" gradientUnits="userSpaceOnUse">
<stop stop-color="#77B6FF"/>
<stop offset="1" stop-color="#9DC4FF" stop-opacity="0"/>
</linearGradient>
</defs>
</svg>
