<svg width="425" height="141" viewBox="0 0 425 141" fill="none" xmlns="http://www.w3.org/2000/svg">
<path d="M425 141H0C0 98.4741 95.1395 64 212.5 64C329.861 64 425 98.4741 425 141Z" fill="url(#paint0_radial_33222_339232)"/>
<ellipse cx="211" cy="84.5" rx="94" ry="17.5" fill="#DEEAFF"/>
<ellipse rx="31" ry="2" transform="matrix(1 0 0 -1 211 80)" fill="#CBDEFF"/>
<rect x="163.5" y="71.4287" width="1.42857" height="3.57143" fill="#3B4F8C"/>
<path d="M161 70.7143L164.214 60V73.5714L161 70.7143Z" fill="#A1C0F9"/>
<path d="M164.215 73.5714V60L168.143 70.3571L164.215 73.5714Z" fill="#6993E7"/>
<rect x="280.668" y="80.1904" width="1.52381" height="3.80952" fill="#3B4F8C"/>
<path d="M278 79.4286L281.429 68V82.4762L278 79.4286Z" fill="#A1C0F9"/>
<path d="M281.428 82.4762V68L285.618 79.0476L281.428 82.4762Z" fill="#6993E7"/>
<rect x="147.5" y="84" width="2" height="5" fill="#3B4F8C"/>
<path d="M144 83L148.5 68V87L144 83Z" fill="#A1C0F9"/>
<path d="M148.5 87V68L154 82.5L148.5 87Z" fill="#6993E7"/>
<path fill-rule="evenodd" clip-rule="evenodd" d="M176 5C176 3.89543 176.895 3 178 3H194C195.105 3 196 3.89543 196 5V21C196 22.1046 195.105 23 194 23H178C176.895 23 176 22.1046 176 21V5ZM200 5C200 3.89543 200.895 3 202 3H218C219.105 3 220 3.89543 220 5V21C220 22.1046 219.105 23 218 23H202C200.895 23 200 22.1046 200 21V5ZM226 3C224.895 3 224 3.89543 224 5V21C224 22.1046 224.895 23 226 23H242C243.105 23 244 22.1046 244 21V5C244 3.89543 243.105 3 242 3H226ZM176 29C176 27.8954 176.895 27 178 27H194C195.105 27 196 27.8954 196 29V45C196 46.1046 195.105 47 194 47H178C176.895 47 176 46.1046 176 45V29ZM202 27C200.895 27 200 27.8954 200 29V45C200 46.1046 200.895 47 202 47H218C219.105 47 220 46.1046 220 45V29C220 27.8954 219.105 27 218 27H202ZM224 29C224 27.8954 224.895 27 226 27H242C243.105 27 244 27.8954 244 29V45C244 46.1046 243.105 47 242 47H226C224.895 47 224 46.1046 224 45V29ZM178 51C176.895 51 176 51.8954 176 53V69C176 70.1046 176.895 71 178 71H194C195.105 71 196 70.1046 196 69V53C196 51.8954 195.105 51 194 51H178ZM200 53C200 51.8954 200.895 51 202 51H218C219.105 51 220 51.8954 220 53V69C220 70.1046 219.105 71 218 71H202C200.895 71 200 70.1046 200 69V53ZM226 51C224.895 51 224 51.8954 224 53V69C224 70.1046 224.895 71 226 71H242C243.105 71 244 70.1046 244 69V53C244 51.8954 243.105 51 242 51H226Z" fill="url(#paint1_linear_33222_339232)"/>
<path fill-rule="evenodd" clip-rule="evenodd" d="M176 5C176 3.89543 176.895 3 178 3H194C195.105 3 196 3.89543 196 5V21C196 22.1046 195.105 23 194 23H178C176.895 23 176 22.1046 176 21V5ZM200 5C200 3.89543 200.895 3 202 3H218C219.105 3 220 3.89543 220 5V21C220 22.1046 219.105 23 218 23H202C200.895 23 200 22.1046 200 21V5ZM226 3C224.895 3 224 3.89543 224 5V21C224 22.1046 224.895 23 226 23H242C243.105 23 244 22.1046 244 21V5C244 3.89543 243.105 3 242 3H226ZM176 29C176 27.8954 176.895 27 178 27H194C195.105 27 196 27.8954 196 29V45C196 46.1046 195.105 47 194 47H178C176.895 47 176 46.1046 176 45V29ZM202 27C200.895 27 200 27.8954 200 29V45C200 46.1046 200.895 47 202 47H218C219.105 47 220 46.1046 220 45V29C220 27.8954 219.105 27 218 27H202ZM224 29C224 27.8954 224.895 27 226 27H242C243.105 27 244 27.8954 244 29V45C244 46.1046 243.105 47 242 47H226C224.895 47 224 46.1046 224 45V29ZM178 51C176.895 51 176 51.8954 176 53V69C176 70.1046 176.895 71 178 71H194C195.105 71 196 70.1046 196 69V53C196 51.8954 195.105 51 194 51H178ZM200 53C200 51.8954 200.895 51 202 51H218C219.105 51 220 51.8954 220 53V69C220 70.1046 219.105 71 218 71H202C200.895 71 200 70.1046 200 69V53ZM226 51C224.895 51 224 51.8954 224 53V69C224 70.1046 224.895 71 226 71H242C243.105 71 244 70.1046 244 69V53C244 51.8954 243.105 51 242 51H226Z" fill="url(#paint2_linear_33222_339232)"/>
<path fill-rule="evenodd" clip-rule="evenodd" d="M177 4C177 2.89543 177.895 2 179 2H195C196.105 2 197 2.89543 197 4V20C197 21.1046 196.105 22 195 22H179C177.895 22 177 21.1046 177 20V4ZM201 4C201 2.89543 201.895 2 203 2H219C220.105 2 221 2.89543 221 4V20C221 21.1046 220.105 22 219 22H203C201.895 22 201 21.1046 201 20V4ZM227 2C225.895 2 225 2.89543 225 4V20C225 21.1046 225.895 22 227 22H243C244.105 22 245 21.1046 245 20V4C245 2.89543 244.105 2 243 2H227ZM177 28C177 26.8954 177.895 26 179 26H195C196.105 26 197 26.8954 197 28V44C197 45.1046 196.105 46 195 46H179C177.895 46 177 45.1046 177 44V28ZM203 26C201.895 26 201 26.8954 201 28V44C201 45.1046 201.895 46 203 46H219C220.105 46 221 45.1046 221 44V28C221 26.8954 220.105 26 219 26H203ZM225 28C225 26.8954 225.895 26 227 26H243C244.105 26 245 26.8954 245 28V44C245 45.1046 244.105 46 243 46H227C225.895 46 225 45.1046 225 44V28ZM179 50C177.895 50 177 50.8954 177 52V68C177 69.1046 177.895 70 179 70H195C196.105 70 197 69.1046 197 68V52C197 50.8954 196.105 50 195 50H179ZM201 52C201 50.8954 201.895 50 203 50H219C220.105 50 221 50.8954 221 52V68C221 69.1046 220.105 70 219 70H203C201.895 70 201 69.1046 201 68V52ZM227 50C225.895 50 225 50.8954 225 52V68C225 69.1046 225.895 70 227 70H243C244.105 70 245 69.1046 245 68V52C245 50.8954 244.105 50 243 50H227Z" fill="url(#paint3_linear_33222_339232)"/>
<path fill-rule="evenodd" clip-rule="evenodd" d="M177 4C177 2.89543 177.895 2 179 2H195C196.105 2 197 2.89543 197 4V20C197 21.1046 196.105 22 195 22H179C177.895 22 177 21.1046 177 20V4ZM201 4C201 2.89543 201.895 2 203 2H219C220.105 2 221 2.89543 221 4V20C221 21.1046 220.105 22 219 22H203C201.895 22 201 21.1046 201 20V4ZM227 2C225.895 2 225 2.89543 225 4V20C225 21.1046 225.895 22 227 22H243C244.105 22 245 21.1046 245 20V4C245 2.89543 244.105 2 243 2H227ZM177 28C177 26.8954 177.895 26 179 26H195C196.105 26 197 26.8954 197 28V44C197 45.1046 196.105 46 195 46H179C177.895 46 177 45.1046 177 44V28ZM203 26C201.895 26 201 26.8954 201 28V44C201 45.1046 201.895 46 203 46H219C220.105 46 221 45.1046 221 44V28C221 26.8954 220.105 26 219 26H203ZM225 28C225 26.8954 225.895 26 227 26H243C244.105 26 245 26.8954 245 28V44C245 45.1046 244.105 46 243 46H227C225.895 46 225 45.1046 225 44V28ZM179 50C177.895 50 177 50.8954 177 52V68C177 69.1046 177.895 70 179 70H195C196.105 70 197 69.1046 197 68V52C197 50.8954 196.105 50 195 50H179ZM201 52C201 50.8954 201.895 50 203 50H219C220.105 50 221 50.8954 221 52V68C221 69.1046 220.105 70 219 70H203C201.895 70 201 69.1046 201 68V52ZM227 50C225.895 50 225 50.8954 225 52V68C225 69.1046 225.895 70 227 70H243C244.105 70 245 69.1046 245 68V52C245 50.8954 244.105 50 243 50H227Z" fill="url(#paint4_linear_33222_339232)"/>
<rect x="177" y="26" width="20" height="20" rx="2" fill="url(#paint5_linear_33222_339232)"/>
<g filter="url(#filter0_f_33222_339232)">
<rect x="246.219" y="68.795" width="2.42581" height="8.47961" transform="rotate(-40 246.219 68.795)" stroke="#537FD8" stroke-width="2.42581" stroke-linecap="round"/>
</g>
<rect x="240.057" y="57.7383" width="4.85161" height="14.0623" transform="rotate(-40 240.057 57.7383)" fill="url(#paint6_linear_33222_339232)"/>
<circle cx="236.418" cy="48.5548" r="11.5226" stroke="#526AB4" stroke-width="3.63871"/>
<g filter="url(#filter1_f_33222_339232)">
<path d="M233.596 61.9326C227.223 63.9951 220.384 60.5005 218.322 54.1272C216.259 47.7539 222.469 35.8203 233.386 41.8842" stroke="#537FD8" stroke-width="3.63871" stroke-linecap="round"/>
</g>
<circle cx="237.631" cy="47.3419" r="11.5226" stroke="url(#paint7_linear_33222_339232)" stroke-width="3.63871"/>
<defs>
<filter id="filter0_f_33222_339232" x="236.019" y="57.0367" width="27.7072" height="28.4532" filterUnits="userSpaceOnUse" color-interpolation-filters="sRGB">
<feFlood flood-opacity="0" result="BackgroundImageFix"/>
<feBlend mode="normal" in="SourceGraphic" in2="BackgroundImageFix" result="shape"/>
<feGaussianBlur stdDeviation="4.24516" result="effect1_foregroundBlur_33222_339232"/>
</filter>
<filter id="filter1_f_33222_339232" x="207.619" y="29.9052" width="36.2878" height="42.9301" filterUnits="userSpaceOnUse" color-interpolation-filters="sRGB">
<feFlood flood-opacity="0" result="BackgroundImageFix"/>
<feBlend mode="normal" in="SourceGraphic" in2="BackgroundImageFix" result="shape"/>
<feGaussianBlur stdDeviation="4.24516" result="effect1_foregroundBlur_33222_339232"/>
</filter>
<radialGradient id="paint0_radial_33222_339232" cx="0" cy="0" r="1" gradientUnits="userSpaceOnUse" gradientTransform="translate(213.278 68.9149) rotate(90.6187) scale(72.0893 397.857)">
<stop offset="0.124566" stop-color="#CBDEFF"/>
<stop offset="0.293125" stop-color="#C9DEFF" stop-opacity="0.47"/>
<stop offset="0.659421" stop-color="#CFE2FF" stop-opacity="0"/>
</radialGradient>
<linearGradient id="paint1_linear_33222_339232" x1="209.147" y1="3" x2="209.147" y2="71" gradientUnits="userSpaceOnUse">
<stop stop-color="#B7D4FF"/>
<stop offset="1" stop-color="#7CA4FF"/>
</linearGradient>
<linearGradient id="paint2_linear_33222_339232" x1="197.147" y1="-33.2177" x2="131.997" y2="41.0233" gradientUnits="userSpaceOnUse">
<stop offset="0.0435924" stop-color="#CDDCFF"/>
<stop offset="1" stop-color="#ECF2FF"/>
</linearGradient>
<linearGradient id="paint3_linear_33222_339232" x1="210.147" y1="2" x2="210.147" y2="70" gradientUnits="userSpaceOnUse">
<stop stop-color="#B7D4FF"/>
<stop offset="1" stop-color="#7CA4FF"/>
</linearGradient>
<linearGradient id="paint4_linear_33222_339232" x1="211" y1="2" x2="211" y2="70" gradientUnits="userSpaceOnUse">
<stop stop-color="#AEC7FF"/>
<stop offset="1" stop-color="#487FFF"/>
</linearGradient>
<linearGradient id="paint5_linear_33222_339232" x1="186.749" y1="26" x2="186.749" y2="46" gradientUnits="userSpaceOnUse">
<stop stop-color="#B7E1FF"/>
<stop offset="1" stop-color="#86D3FF"/>
</linearGradient>
<linearGradient id="paint6_linear_33222_339232" x1="247.629" y1="65.338" x2="238.194" y2="65.338" gradientUnits="userSpaceOnUse">
<stop stop-color="#4A78D8"/>
<stop offset="1" stop-color="#3F62B3"/>
</linearGradient>
<linearGradient id="paint7_linear_33222_339232" x1="226.715" y1="56.4387" x2="249.76" y2="37.6387" gradientUnits="userSpaceOnUse">
<stop stop-color="#F1FCFF"/>
<stop offset="1" stop-color="#DDE7FF"/>
</linearGradient>
</defs>
</svg>
