<svg width="425" height="145" viewBox="0 0 425 145" fill="none" xmlns="http://www.w3.org/2000/svg">
<path d="M425 145H0C0 102.474 95.1395 68 212.5 68C329.861 68 425 102.474 425 145Z" fill="url(#paint0_radial_33222_339567)"/>
<ellipse cx="213" cy="88.5" rx="94" ry="17.5" fill="#DEEAFF"/>
<ellipse cx="211.5" cy="81.3623" rx="23.5" ry="1.36232" fill="#CBDEFF"/>
<path d="M280.983 68.7112C280.885 67.921 280.12 67.4086 279.346 67.5955C278.792 67.7292 278.38 68.1932 278.32 68.76C278.161 70.2653 277.861 73.3604 277.733 76.4626C277.605 79.5272 277.485 82.425 277.426 83.8564C277.402 84.4285 277.704 84.963 278.205 85.24C279.095 85.7322 280.202 85.2232 280.384 84.2226C280.765 82.1315 281.305 78.8136 281.409 76.2814C281.52 73.6216 281.206 70.5009 280.983 68.7112Z" fill="#A1C0F9"/>
<path d="M285.04 72.6776C285.068 72.1853 284.667 71.7895 284.174 71.7973C283.718 71.8044 283.342 72.1548 283.291 72.6073C283.165 73.7144 282.886 75.7302 282.408 77.0549C281.894 78.4763 280.387 79.1502 279.654 79.4012C279.407 79.4855 279.212 79.6894 279.165 79.9455C279.085 80.3828 279.454 80.7517 279.878 80.62C280.672 80.3738 281.897 79.8682 283.089 78.8746C284.583 77.6306 284.95 74.2897 285.04 72.6776Z" fill="#A1C0F9"/>
<path d="M274.252 70.0385C274.245 69.6292 274.59 69.3136 274.999 69.3359C275.377 69.3565 275.678 69.6594 275.706 70.0364C275.774 70.9591 275.941 72.6407 276.295 73.7552C276.676 74.9511 277.904 75.5588 278.505 75.7907C278.707 75.8686 278.862 76.044 278.893 76.258C278.946 76.6234 278.627 76.9177 278.279 76.7947C277.628 76.5649 276.629 76.106 275.671 75.2432C274.472 74.1629 274.275 71.379 274.252 70.0385Z" fill="#A1C0F9"/>
<path fill-rule="evenodd" clip-rule="evenodd" d="M274.797 69.3595C274.771 70.4532 274.871 72.6765 275.471 73.8734C276.072 75.0709 277.084 75.7178 278.316 76.2178C278.326 76.2479 278.333 76.279 278.338 76.311C278.391 76.6813 278.061 76.9689 277.719 76.8163C277.151 76.5624 276.328 76.0913 275.53 75.263C274.453 74.1443 274.239 71.2894 274.198 69.9796C274.188 69.6364 274.462 69.3665 274.797 69.3595Z" fill="#6993E7"/>
<path fill-rule="evenodd" clip-rule="evenodd" d="M284.039 71.8085C283.959 73.4525 283.65 76.5845 282.964 77.496C282.247 78.4486 281.073 79.1818 280.576 79.4293L280.664 78.9482C281.342 78.5657 282.076 77.9626 282.405 77.0543C282.883 75.7296 283.162 73.7138 283.288 72.6067C283.334 72.1987 283.645 71.8737 284.039 71.8085Z" fill="#6993E7"/>
<path fill-rule="evenodd" clip-rule="evenodd" d="M278.872 85.4287C278.511 80.6223 279.258 71.8995 279.744 67.5593C279.614 67.5517 279.48 67.5631 279.345 67.5956C278.791 67.7293 278.379 68.1932 278.319 68.7601C278.16 70.2654 277.86 73.3605 277.731 76.4627L277.425 83.8564C277.401 84.4286 277.703 84.963 278.204 85.2401C278.419 85.3592 278.647 85.4197 278.872 85.4287Z" fill="#6993E7"/>
<path d="M264.546 63.7663C264.761 63.0829 265.522 62.7541 266.176 63.0455C266.645 63.2542 266.934 63.7319 266.895 64.2434C266.791 65.6016 266.552 68.3897 266.16 71.1562C265.774 73.8893 265.408 76.4735 265.227 77.75C265.155 78.2602 264.801 78.6841 264.312 78.8477C263.444 79.1383 262.548 78.5076 262.55 77.5923C262.553 75.6795 262.616 72.6551 262.936 70.3969C263.271 68.0249 264.057 65.3141 264.546 63.7663Z" fill="#A1C0F9"/>
<path d="M260.259 64.3509C260.253 63.9072 260.628 63.5662 261.071 63.5915C261.48 63.6149 261.806 63.944 261.835 64.3527C261.907 65.3528 262.082 67.1757 262.464 68.3846C262.873 69.6817 264.202 70.3437 264.853 70.5966C265.071 70.6816 265.239 70.8721 265.272 71.1042C265.328 71.5004 264.982 71.8184 264.605 71.6842C263.901 71.4333 262.819 70.9332 261.783 69.9954C260.486 68.8214 260.28 65.8038 260.259 64.3509Z" fill="#A1C0F9"/>
<path d="M269.644 68.8333C269.731 68.4669 269.483 68.1149 269.111 68.0542C268.768 67.9981 268.438 68.2107 268.338 68.544C268.094 69.3597 267.612 70.838 267.073 71.7696C266.494 72.7691 265.27 73.0724 264.685 73.162C264.488 73.1921 264.314 73.3191 264.244 73.5053C264.124 73.8233 264.352 74.1507 264.689 74.109C265.319 74.0311 266.308 73.8163 267.34 73.2303C268.631 72.4965 269.358 70.0336 269.644 68.8333Z" fill="#A1C0F9"/>
<path fill-rule="evenodd" clip-rule="evenodd" d="M269.288 68.1157C269.095 69.1036 268.565 71.0819 267.789 72.039C267.013 72.9967 265.975 73.3778 264.769 73.5836C264.754 73.6086 264.741 73.635 264.731 73.6627C264.609 73.985 264.85 74.3089 265.187 74.2392C265.747 74.1234 266.58 73.8627 267.461 73.2761C268.651 72.4838 269.407 69.9602 269.703 68.7912C269.78 68.485 269.587 68.1884 269.288 68.1157Z" fill="#6993E7"/>
<path fill-rule="evenodd" clip-rule="evenodd" d="M261.19 63.6067C261.201 65.088 261.362 67.9154 261.945 68.7604C262.555 69.6436 263.583 70.3465 264.021 70.5875L263.959 70.1521C263.364 69.7829 262.726 69.2133 262.464 68.3841C262.083 67.1752 261.907 65.3523 261.836 64.3522C261.809 63.9839 261.542 63.6803 261.19 63.6067Z" fill="#6993E7"/>
<path fill-rule="evenodd" clip-rule="evenodd" d="M263.688 78.9053C264.791 74.7104 265.55 66.8685 265.827 62.9479C265.944 62.9625 266.061 62.9944 266.175 63.0451C266.644 63.2538 266.933 63.7315 266.893 64.2429C266.789 65.6012 266.55 68.3893 266.159 71.1558L265.226 77.7496C265.154 78.2598 264.799 78.6837 264.311 78.8473C264.101 78.9177 263.889 78.934 263.688 78.9053Z" fill="#6993E7"/>
<path d="M151.925 59.9636C151.889 58.7697 152.905 57.834 154.095 57.9327C154.947 58.0033 155.665 58.5961 155.885 59.4226C156.468 61.6172 157.625 66.1362 158.53 70.7052C159.424 75.2188 160.27 79.4866 160.688 81.5948C160.855 82.4374 160.531 83.2992 159.852 83.8253C158.645 84.7599 156.888 84.2603 156.387 82.819C155.34 79.8071 153.777 75.0131 153.038 71.2836C152.262 67.3663 152.008 62.6679 151.925 59.9636Z" fill="#A1C0F9"/>
<path d="M147.764 66.5458C147.713 65.808 148.306 65.2059 149.046 65.2073C149.729 65.2086 150.301 65.7264 150.387 66.404C150.599 68.062 151.059 71.08 151.804 73.0571C152.605 75.1784 154.878 76.158 155.984 76.5193C156.355 76.6407 156.652 76.9423 156.728 77.3256C156.858 77.9798 156.312 78.5409 155.672 78.3522C154.476 77.9994 152.629 77.2665 150.819 75.8009C148.553 73.9659 147.933 68.9622 147.764 66.5458Z" fill="#A1C0F9"/>
<path d="M160.968 58.8329C160.734 58.1312 159.956 57.8008 159.273 58.0841C158.642 58.3457 158.31 59.0425 158.489 59.7018C158.926 61.3152 159.651 64.2806 159.715 66.3927C159.784 68.6589 158.056 70.4314 157.172 71.1869C156.875 71.4407 156.715 71.8328 156.791 72.2161C156.921 72.8704 157.639 73.1809 158.159 72.7625C159.13 71.9803 160.558 70.5986 161.672 68.5536C163.068 65.9932 161.733 61.131 160.968 58.8329Z" fill="#A1C0F9"/>
<path fill-rule="evenodd" clip-rule="evenodd" d="M159.628 58.0043C160.328 59.8525 161.491 63.7013 161.187 66.1011C160.882 68.502 159.545 70.2118 157.746 71.803C157.747 71.8602 157.753 71.9177 157.765 71.9749C157.896 72.638 158.632 72.9298 159.122 72.4647C159.938 71.6914 161.058 70.3946 161.92 68.5044C163.086 65.9515 161.737 60.9581 161.02 58.702C160.832 58.1108 160.203 57.8152 159.628 58.0043Z" fill="#6993E7"/>
<path fill-rule="evenodd" clip-rule="evenodd" d="M149.244 65.2225C149.398 67.6869 149.926 72.3782 150.974 73.7312C152.07 75.1452 153.846 76.2205 154.597 76.5814L154.455 75.8623C153.429 75.3026 152.315 74.4131 151.804 73.0571C151.058 71.08 150.598 68.0621 150.387 66.404C150.309 65.7933 149.836 65.3124 149.244 65.2225Z" fill="#6993E7"/>
<path fill-rule="evenodd" clip-rule="evenodd" d="M158.905 84.2586C158.333 77.0506 155.216 64.2924 153.496 57.9704C153.687 57.9295 153.888 57.9156 154.094 57.9327C154.947 58.0033 155.664 58.5962 155.884 59.4226C156.467 61.6172 157.624 66.1362 158.529 70.7052L160.687 81.5948C160.854 82.4374 160.53 83.2992 159.851 83.8253C159.559 84.0512 159.235 84.1933 158.905 84.2586Z" fill="#6993E7"/>
<path d="M226.71 49.5488L230.566 47.7308L246.66 82.329L242.163 82.329L226.71 49.5488Z" fill="url(#paint1_linear_33222_339567)"/>
<path d="M198.41 49.5488L194.554 47.7308L179.101 82.329L182.957 82.329L198.41 49.5488Z" fill="url(#paint2_linear_33222_339567)"/>
<rect x="178.808" y="2.80762" width="67.3846" height="53.3462" fill="url(#paint3_linear_33222_339567)"/>
<rect x="179.743" y="2.80762" width="66.4487" height="53.3462" fill="url(#paint4_linear_33222_339567)"/>
<rect x="176" width="73" height="2.80769" fill="url(#paint5_linear_33222_339567)"/>
<rect x="176" y="55.2178" width="73" height="2.80769" fill="url(#paint6_linear_33222_339567)"/>
<g filter="url(#filter0_d_33222_339567)">
<rect x="188.167" y="46.7949" width="22.4615" height="5.61539" rx="2.80769" transform="rotate(-90 188.167 46.7949)" fill="#F1FCFF"/>
</g>
<path d="M190.507 17.7819L204.545 21.0575L219.052 12.1665L233.09 22.4614" stroke="#F1FCFF" stroke-width="0.935897" stroke-dasharray="1.87 1.87"/>
<g filter="url(#filter1_d_33222_339567)">
<rect x="189.103" y="19.6538" width="3.74359" height="3.74359" rx="1.87179" transform="rotate(-90 189.103 19.6538)" fill="#F1FCFF"/>
</g>
<g filter="url(#filter2_d_33222_339567)">
<rect x="203.141" y="23.3975" width="3.74359" height="3.74359" rx="1.87179" transform="rotate(-90 203.141 23.3975)" fill="#F1FCFF"/>
</g>
<g filter="url(#filter3_d_33222_339567)">
<rect x="217.18" y="14.0386" width="3.74359" height="3.74359" rx="1.87179" transform="rotate(-90 217.18 14.0386)" fill="#F1FCFF"/>
</g>
<g filter="url(#filter4_d_33222_339567)">
<rect x="231.218" y="24.3335" width="3.74359" height="3.74359" rx="1.87179" transform="rotate(-90 231.218 24.3335)" fill="#F1FCFF"/>
</g>
<g filter="url(#filter5_d_33222_339567)">
<rect x="202.205" y="46.7949" width="19.6538" height="5.61539" rx="2.80769" transform="rotate(-90 202.205 46.7949)" fill="#F1FCFF"/>
</g>
<g filter="url(#filter6_d_33222_339567)">
<rect x="216.243" y="46.7949" width="26.2051" height="5.61539" rx="2.80769" transform="rotate(-90 216.243 46.7949)" fill="#F1FCFF"/>
</g>
<g filter="url(#filter7_d_33222_339567)">
<rect x="230.282" y="46.7949" width="19.6538" height="5.61539" rx="2.80769" transform="rotate(-90 230.282 46.7949)" fill="#F1FCFF"/>
</g>
<defs>
<filter id="filter0_d_33222_339567" x="188.167" y="24.3335" width="5.61523" height="22.9294" filterUnits="userSpaceOnUse" color-interpolation-filters="sRGB">
<feFlood flood-opacity="0" result="BackgroundImageFix"/>
<feColorMatrix in="SourceAlpha" type="matrix" values="0 0 0 0 0 0 0 0 0 0 0 0 0 0 0 0 0 0 127 0" result="hardAlpha"/>
<feOffset dy="0.467949"/>
<feComposite in2="hardAlpha" operator="out"/>
<feColorMatrix type="matrix" values="0 0 0 0 0 0 0 0 0 0 0 0 0 0 0 0 0 0 0.15 0"/>
<feBlend mode="normal" in2="BackgroundImageFix" result="effect1_dropShadow_33222_339567"/>
<feBlend mode="normal" in="SourceGraphic" in2="effect1_dropShadow_33222_339567" result="shape"/>
</filter>
<filter id="filter1_d_33222_339567" x="189.103" y="15.9102" width="3.74316" height="4.2116" filterUnits="userSpaceOnUse" color-interpolation-filters="sRGB">
<feFlood flood-opacity="0" result="BackgroundImageFix"/>
<feColorMatrix in="SourceAlpha" type="matrix" values="0 0 0 0 0 0 0 0 0 0 0 0 0 0 0 0 0 0 127 0" result="hardAlpha"/>
<feOffset dy="0.467949"/>
<feComposite in2="hardAlpha" operator="out"/>
<feColorMatrix type="matrix" values="0 0 0 0 0 0 0 0 0 0 0 0 0 0 0 0 0 0 0.15 0"/>
<feBlend mode="normal" in2="BackgroundImageFix" result="effect1_dropShadow_33222_339567"/>
<feBlend mode="normal" in="SourceGraphic" in2="effect1_dropShadow_33222_339567" result="shape"/>
</filter>
<filter id="filter2_d_33222_339567" x="203.141" y="19.6538" width="3.74316" height="4.2116" filterUnits="userSpaceOnUse" color-interpolation-filters="sRGB">
<feFlood flood-opacity="0" result="BackgroundImageFix"/>
<feColorMatrix in="SourceAlpha" type="matrix" values="0 0 0 0 0 0 0 0 0 0 0 0 0 0 0 0 0 0 127 0" result="hardAlpha"/>
<feOffset dy="0.467949"/>
<feComposite in2="hardAlpha" operator="out"/>
<feColorMatrix type="matrix" values="0 0 0 0 0 0 0 0 0 0 0 0 0 0 0 0 0 0 0.15 0"/>
<feBlend mode="normal" in2="BackgroundImageFix" result="effect1_dropShadow_33222_339567"/>
<feBlend mode="normal" in="SourceGraphic" in2="effect1_dropShadow_33222_339567" result="shape"/>
</filter>
<filter id="filter3_d_33222_339567" x="217.18" y="10.2949" width="3.74316" height="4.2116" filterUnits="userSpaceOnUse" color-interpolation-filters="sRGB">
<feFlood flood-opacity="0" result="BackgroundImageFix"/>
<feColorMatrix in="SourceAlpha" type="matrix" values="0 0 0 0 0 0 0 0 0 0 0 0 0 0 0 0 0 0 127 0" result="hardAlpha"/>
<feOffset dy="0.467949"/>
<feComposite in2="hardAlpha" operator="out"/>
<feColorMatrix type="matrix" values="0 0 0 0 0 0 0 0 0 0 0 0 0 0 0 0 0 0 0.15 0"/>
<feBlend mode="normal" in2="BackgroundImageFix" result="effect1_dropShadow_33222_339567"/>
<feBlend mode="normal" in="SourceGraphic" in2="effect1_dropShadow_33222_339567" result="shape"/>
</filter>
<filter id="filter4_d_33222_339567" x="231.218" y="20.5898" width="3.74316" height="4.2116" filterUnits="userSpaceOnUse" color-interpolation-filters="sRGB">
<feFlood flood-opacity="0" result="BackgroundImageFix"/>
<feColorMatrix in="SourceAlpha" type="matrix" values="0 0 0 0 0 0 0 0 0 0 0 0 0 0 0 0 0 0 127 0" result="hardAlpha"/>
<feOffset dy="0.467949"/>
<feComposite in2="hardAlpha" operator="out"/>
<feColorMatrix type="matrix" values="0 0 0 0 0 0 0 0 0 0 0 0 0 0 0 0 0 0 0.15 0"/>
<feBlend mode="normal" in2="BackgroundImageFix" result="effect1_dropShadow_33222_339567"/>
<feBlend mode="normal" in="SourceGraphic" in2="effect1_dropShadow_33222_339567" result="shape"/>
</filter>
<filter id="filter5_d_33222_339567" x="202.205" y="27.1411" width="5.61523" height="20.1218" filterUnits="userSpaceOnUse" color-interpolation-filters="sRGB">
<feFlood flood-opacity="0" result="BackgroundImageFix"/>
<feColorMatrix in="SourceAlpha" type="matrix" values="0 0 0 0 0 0 0 0 0 0 0 0 0 0 0 0 0 0 127 0" result="hardAlpha"/>
<feOffset dy="0.467949"/>
<feComposite in2="hardAlpha" operator="out"/>
<feColorMatrix type="matrix" values="0 0 0 0 0 0 0 0 0 0 0 0 0 0 0 0 0 0 0.15 0"/>
<feBlend mode="normal" in2="BackgroundImageFix" result="effect1_dropShadow_33222_339567"/>
<feBlend mode="normal" in="SourceGraphic" in2="effect1_dropShadow_33222_339567" result="shape"/>
</filter>
<filter id="filter6_d_33222_339567" x="216.243" y="20.5898" width="5.61523" height="26.673" filterUnits="userSpaceOnUse" color-interpolation-filters="sRGB">
<feFlood flood-opacity="0" result="BackgroundImageFix"/>
<feColorMatrix in="SourceAlpha" type="matrix" values="0 0 0 0 0 0 0 0 0 0 0 0 0 0 0 0 0 0 127 0" result="hardAlpha"/>
<feOffset dy="0.467949"/>
<feComposite in2="hardAlpha" operator="out"/>
<feColorMatrix type="matrix" values="0 0 0 0 0 0 0 0 0 0 0 0 0 0 0 0 0 0 0.15 0"/>
<feBlend mode="normal" in2="BackgroundImageFix" result="effect1_dropShadow_33222_339567"/>
<feBlend mode="normal" in="SourceGraphic" in2="effect1_dropShadow_33222_339567" result="shape"/>
</filter>
<filter id="filter7_d_33222_339567" x="230.282" y="27.1411" width="5.61523" height="20.1218" filterUnits="userSpaceOnUse" color-interpolation-filters="sRGB">
<feFlood flood-opacity="0" result="BackgroundImageFix"/>
<feColorMatrix in="SourceAlpha" type="matrix" values="0 0 0 0 0 0 0 0 0 0 0 0 0 0 0 0 0 0 127 0" result="hardAlpha"/>
<feOffset dy="0.467949"/>
<feComposite in2="hardAlpha" operator="out"/>
<feColorMatrix type="matrix" values="0 0 0 0 0 0 0 0 0 0 0 0 0 0 0 0 0 0 0.15 0"/>
<feBlend mode="normal" in2="BackgroundImageFix" result="effect1_dropShadow_33222_339567"/>
<feBlend mode="normal" in="SourceGraphic" in2="effect1_dropShadow_33222_339567" result="shape"/>
</filter>
<radialGradient id="paint0_radial_33222_339567" cx="0" cy="0" r="1" gradientUnits="userSpaceOnUse" gradientTransform="translate(213.278 72.9149) rotate(90.6187) scale(72.0893 397.857)">
<stop offset="0.124566" stop-color="#CBDEFF"/>
<stop offset="0.293125" stop-color="#C9DEFF" stop-opacity="0.47"/>
<stop offset="0.659421" stop-color="#CFE2FF" stop-opacity="0"/>
</radialGradient>
<linearGradient id="paint1_linear_33222_339567" x1="242.505" y1="73.4263" x2="237.895" y2="75.2496" gradientUnits="userSpaceOnUse">
<stop stop-color="#487FFF"/>
<stop offset="1" stop-color="#AEC7FF"/>
</linearGradient>
<linearGradient id="paint2_linear_33222_339567" x1="183.019" y1="76.2758" x2="185.836" y2="77.3332" gradientUnits="userSpaceOnUse">
<stop stop-color="#487FFF"/>
<stop offset="1" stop-color="#AEC7FF"/>
</linearGradient>
<linearGradient id="paint3_linear_33222_339567" x1="180.679" y1="5.61531" x2="180.211" y2="54.282" gradientUnits="userSpaceOnUse">
<stop stop-color="#CADAFF"/>
<stop offset="1" stop-color="#9DBAFF"/>
</linearGradient>
<linearGradient id="paint4_linear_33222_339567" x1="212.968" y1="2.80762" x2="212.968" y2="56.1538" gradientUnits="userSpaceOnUse">
<stop stop-color="#AEC7FF"/>
<stop offset="1" stop-color="#487FFF"/>
</linearGradient>
<linearGradient id="paint5_linear_33222_339567" x1="212.5" y1="0" x2="212.5" y2="2.80769" gradientUnits="userSpaceOnUse">
<stop stop-color="#C6D7FF"/>
<stop offset="0.706606" stop-color="#6B98FF"/>
</linearGradient>
<linearGradient id="paint6_linear_33222_339567" x1="212.5" y1="55.2178" x2="212.5" y2="58.0255" gradientUnits="userSpaceOnUse">
<stop stop-color="#94B4FF"/>
<stop offset="0.706606" stop-color="#5488FF"/>
</linearGradient>
</defs>
</svg>
