<svg width="425" height="141" viewBox="0 0 425 141" fill="none" xmlns="http://www.w3.org/2000/svg">
<path d="M425 141H0C0 98.4741 95.1395 64 212.5 64C329.861 64 425 98.4741 425 141Z" fill="url(#paint0_radial_33222_339055)"/>
<ellipse cx="213" cy="84.5" rx="94" ry="17.5" fill="#DEEAFF"/>
<ellipse rx="24.5" ry="2" transform="matrix(1 0 0 -1 219.5 80)" fill="#CBDEFF"/>
<rect x="168.5" y="71.4287" width="1.42857" height="3.57143" fill="#3B4F8C"/>
<path d="M166 70.7143L169.214 60V73.5714L166 70.7143Z" fill="#A1C0F9"/>
<path d="M169.215 73.5714V60L173.143 70.3571L169.215 73.5714Z" fill="#6993E7"/>
<rect x="280.668" y="80.1904" width="1.52381" height="3.80952" fill="#3B4F8C"/>
<path d="M278 79.4286L281.429 68V82.4762L278 79.4286Z" fill="#A1C0F9"/>
<path d="M281.428 82.4762V68L285.618 79.0476L281.428 82.4762Z" fill="#6993E7"/>
<rect x="152.5" y="84" width="2" height="5" fill="#3B4F8C"/>
<path d="M149 83L153.5 68V87L149 83Z" fill="#A1C0F9"/>
<path d="M153.5 87V68L159 82.5L153.5 87Z" fill="#6993E7"/>
<path d="M248.5 16H193.343C189.898 16 187.161 18.8936 187.352 22.3328L188.185 37.3328C188.362 40.5123 190.992 43 194.176 43H248.5C251.814 43 254.5 40.3137 254.5 37V22C254.5 18.6863 251.814 16 248.5 16Z" fill="url(#paint1_linear_33222_339055)"/>
<path d="M188.782 8.69525L211.924 3.0112C212.522 2.86432 213.159 3.01295 213.598 3.44497C221.715 11.4372 223.49 29.0038 219.929 38.0914C219.677 38.7348 219.057 39.1426 218.367 39.1817L196.756 40.405C195.571 40.472 194.622 39.4409 194.706 38.2576C195.495 27.1213 191.06 17.1928 187.618 11.7554C186.889 10.6045 187.46 9.02015 188.782 8.69525Z" fill="url(#paint2_linear_33222_339055)"/>
<g filter="url(#filter0_d_33222_339055)">
<rect x="195.244" y="15.2036" width="18.8787" height="1.88787" rx="0.943934" transform="rotate(-14.9668 195.244 15.2036)" fill="#F1FCFF"/>
</g>
<g filter="url(#filter1_d_33222_339055)">
<rect x="198.076" y="21.811" width="18.8787" height="1.88787" rx="0.943934" transform="rotate(-14.9668 198.076 21.811)" fill="#F1FCFF"/>
</g>
<g filter="url(#filter2_d_33222_339055)">
<path fill-rule="evenodd" clip-rule="evenodd" d="M238.481 4.01938C232.448 2.34968 226.203 5.88717 224.534 11.9206V11.9206C224.354 12.5702 223.681 12.9512 223.032 12.7714L222.354 12.5839C220.876 12.1747 219.324 12.9306 218.734 14.3471L211.015 32.8974C209.609 36.2763 211.482 40.1229 215.009 41.099L239.532 47.8855C243.068 48.8642 246.66 46.5136 247.178 42.8813L250.017 22.9924C250.233 21.4779 249.291 20.0385 247.817 19.6305L247.233 19.469C246.584 19.2892 246.203 18.6168 246.383 17.9671V17.9671C248.052 11.9337 244.515 5.68908 238.481 4.01938ZM241.949 18.0065C242.598 18.1863 243.271 17.8054 243.451 17.1557V17.1557C244.672 12.7416 242.084 8.17295 237.67 6.95138C233.256 5.72981 228.687 8.31788 227.466 12.732V12.732C227.286 13.3817 227.667 14.0541 228.316 14.2338L241.949 18.0065ZM224.53 17.6421C223.224 17.2807 221.873 18.0464 221.511 19.3524C221.15 20.6583 221.916 22.01 223.222 22.3714C224.527 22.7328 225.879 21.9671 226.241 20.6611C226.602 19.3552 225.836 18.0036 224.53 17.6421ZM243.446 22.8773C242.141 22.5159 240.789 23.2815 240.427 24.5875C240.066 25.8934 240.832 27.2451 242.138 27.6065C243.444 27.9679 244.795 27.2022 245.157 25.8963C245.518 24.5903 244.752 23.2387 243.446 22.8773Z" fill="url(#paint3_linear_33222_339055)"/>
</g>
<g filter="url(#filter3_d_33222_339055)">
<circle cx="223.838" cy="19.9781" r="2.53697" transform="rotate(-7.62704 223.838 19.9781)" fill="#F1FCFF"/>
</g>
<g filter="url(#filter4_d_33222_339055)">
<circle cx="242.82" cy="25.1812" r="2.53697" transform="rotate(-7.62704 242.82 25.1812)" fill="#F1FCFF"/>
</g>
<g filter="url(#filter5_d_33222_339055)">
<path d="M191.1 69.4688L178.768 33.9688C177.414 30.0702 180.309 26 184.436 26H201.9C204.116 26 206.151 27.2213 207.194 29.1765L207.806 30.3235C208.849 32.2787 210.884 33.5 213.1 33.5H252.74C256.957 33.5 259.859 37.7357 258.335 41.6679L247.485 69.6679C246.59 71.9777 244.367 73.5 241.89 73.5H196.767C194.213 73.5 191.938 71.8822 191.1 69.4688Z" fill="url(#paint4_linear_33222_339055)"/>
</g>
<g filter="url(#filter6_d_33222_339055)">
<rect x="200" y="54" width="40" height="7" rx="3.5" fill="url(#paint5_linear_33222_339055)"/>
</g>
<defs>
<filter id="filter0_d_33222_339055" x="195.456" y="10.5396" width="18.3027" height="6.74833" filterUnits="userSpaceOnUse" color-interpolation-filters="sRGB">
<feFlood flood-opacity="0" result="BackgroundImageFix"/>
<feColorMatrix in="SourceAlpha" type="matrix" values="0 0 0 0 0 0 0 0 0 0 0 0 0 0 0 0 0 0 127 0" result="hardAlpha"/>
<feOffset dy="0.471967"/>
<feComposite in2="hardAlpha" operator="out"/>
<feColorMatrix type="matrix" values="0 0 0 0 0 0 0 0 0 0 0 0 0 0 0 0 0 0 0.15 0"/>
<feBlend mode="normal" in2="BackgroundImageFix" result="effect1_dropShadow_33222_339055"/>
<feBlend mode="normal" in="SourceGraphic" in2="effect1_dropShadow_33222_339055" result="shape"/>
</filter>
<filter id="filter1_d_33222_339055" x="198.288" y="17.147" width="18.3027" height="6.74833" filterUnits="userSpaceOnUse" color-interpolation-filters="sRGB">
<feFlood flood-opacity="0" result="BackgroundImageFix"/>
<feColorMatrix in="SourceAlpha" type="matrix" values="0 0 0 0 0 0 0 0 0 0 0 0 0 0 0 0 0 0 127 0" result="hardAlpha"/>
<feOffset dy="0.471967"/>
<feComposite in2="hardAlpha" operator="out"/>
<feColorMatrix type="matrix" values="0 0 0 0 0 0 0 0 0 0 0 0 0 0 0 0 0 0 0.15 0"/>
<feBlend mode="normal" in2="BackgroundImageFix" result="effect1_dropShadow_33222_339055"/>
<feBlend mode="normal" in="SourceGraphic" in2="effect1_dropShadow_33222_339055" result="shape"/>
</filter>
<filter id="filter2_d_33222_339055" x="209.601" y="2.66202" width="40.4469" height="45.4461" filterUnits="userSpaceOnUse" color-interpolation-filters="sRGB">
<feFlood flood-opacity="0" result="BackgroundImageFix"/>
<feColorMatrix in="SourceAlpha" type="matrix" values="0 0 0 0 0 0 0 0 0 0 0 0 0 0 0 0 0 0 127 0" result="hardAlpha"/>
<feOffset dx="-0.943935" dy="-0.943935"/>
<feComposite in2="hardAlpha" operator="out"/>
<feColorMatrix type="matrix" values="0 0 0 0 0.829167 0 0 0 0 0.882761 0 0 0 0 1 0 0 0 1 0"/>
<feBlend mode="normal" in2="BackgroundImageFix" result="effect1_dropShadow_33222_339055"/>
<feBlend mode="normal" in="SourceGraphic" in2="effect1_dropShadow_33222_339055" result="shape"/>
</filter>
<filter id="filter3_d_33222_339055" x="221.3" y="17.4409" width="5.07471" height="5.56654" filterUnits="userSpaceOnUse" color-interpolation-filters="sRGB">
<feFlood flood-opacity="0" result="BackgroundImageFix"/>
<feColorMatrix in="SourceAlpha" type="matrix" values="0 0 0 0 0 0 0 0 0 0 0 0 0 0 0 0 0 0 127 0" result="hardAlpha"/>
<feOffset dy="0.492077"/>
<feComposite in2="hardAlpha" operator="out"/>
<feColorMatrix type="matrix" values="0 0 0 0 0 0 0 0 0 0 0 0 0 0 0 0 0 0 0.15 0"/>
<feBlend mode="normal" in2="BackgroundImageFix" result="effect1_dropShadow_33222_339055"/>
<feBlend mode="normal" in="SourceGraphic" in2="effect1_dropShadow_33222_339055" result="shape"/>
</filter>
<filter id="filter4_d_33222_339055" x="240.283" y="22.644" width="5.07471" height="5.56654" filterUnits="userSpaceOnUse" color-interpolation-filters="sRGB">
<feFlood flood-opacity="0" result="BackgroundImageFix"/>
<feColorMatrix in="SourceAlpha" type="matrix" values="0 0 0 0 0 0 0 0 0 0 0 0 0 0 0 0 0 0 127 0" result="hardAlpha"/>
<feOffset dy="0.492077"/>
<feComposite in2="hardAlpha" operator="out"/>
<feColorMatrix type="matrix" values="0 0 0 0 0 0 0 0 0 0 0 0 0 0 0 0 0 0 0.15 0"/>
<feBlend mode="normal" in2="BackgroundImageFix" result="effect1_dropShadow_33222_339055"/>
<feBlend mode="normal" in="SourceGraphic" in2="effect1_dropShadow_33222_339055" result="shape"/>
</filter>
<filter id="filter5_d_33222_339055" x="178.431" y="24.5" width="80.3149" height="49" filterUnits="userSpaceOnUse" color-interpolation-filters="sRGB">
<feFlood flood-opacity="0" result="BackgroundImageFix"/>
<feColorMatrix in="SourceAlpha" type="matrix" values="0 0 0 0 0 0 0 0 0 0 0 0 0 0 0 0 0 0 127 0" result="hardAlpha"/>
<feOffset dy="-1.5"/>
<feComposite in2="hardAlpha" operator="out"/>
<feColorMatrix type="matrix" values="0 0 0 0 0.820833 0 0 0 0 0.877042 0 0 0 0 1 0 0 0 1 0"/>
<feBlend mode="normal" in2="BackgroundImageFix" result="effect1_dropShadow_33222_339055"/>
<feBlend mode="normal" in="SourceGraphic" in2="effect1_dropShadow_33222_339055" result="shape"/>
</filter>
<filter id="filter6_d_33222_339055" x="198" y="52" width="44" height="11" filterUnits="userSpaceOnUse" color-interpolation-filters="sRGB">
<feFlood flood-opacity="0" result="BackgroundImageFix"/>
<feColorMatrix in="SourceAlpha" type="matrix" values="0 0 0 0 0 0 0 0 0 0 0 0 0 0 0 0 0 0 127 0" result="hardAlpha"/>
<feOffset/>
<feGaussianBlur stdDeviation="1"/>
<feComposite in2="hardAlpha" operator="out"/>
<feColorMatrix type="matrix" values="0 0 0 0 0.407843 0 0 0 0 0.568627 0 0 0 0 0.898039 0 0 0 1 0"/>
<feBlend mode="normal" in2="BackgroundImageFix" result="effect1_dropShadow_33222_339055"/>
<feBlend mode="normal" in="SourceGraphic" in2="effect1_dropShadow_33222_339055" result="shape"/>
</filter>
<radialGradient id="paint0_radial_33222_339055" cx="0" cy="0" r="1" gradientUnits="userSpaceOnUse" gradientTransform="translate(213.278 68.9149) rotate(90.6187) scale(72.0893 397.857)">
<stop offset="0.124566" stop-color="#CBDEFF"/>
<stop offset="0.293125" stop-color="#C9DEFF" stop-opacity="0.47"/>
<stop offset="0.659421" stop-color="#CFE2FF" stop-opacity="0"/>
</radialGradient>
<linearGradient id="paint1_linear_33222_339055" x1="221.5" y1="44" x2="220.5" y2="14.5" gradientUnits="userSpaceOnUse">
<stop stop-color="#1749AD"/>
<stop offset="1" stop-color="#80A5F5"/>
</linearGradient>
<linearGradient id="paint2_linear_33222_339055" x1="218.07" y1="36.7585" x2="201.193" y2="2.37857" gradientUnits="userSpaceOnUse">
<stop stop-color="#4471CC"/>
<stop offset="0.834644" stop-color="#AFC8FF"/>
</linearGradient>
<linearGradient id="paint3_linear_33222_339055" x1="236.97" y1="48.266" x2="243.549" y2="1.36512" gradientUnits="userSpaceOnUse">
<stop offset="0.117924" stop-color="#6190FF"/>
<stop offset="0.739064" stop-color="#CBDBFF"/>
</linearGradient>
<linearGradient id="paint4_linear_33222_339055" x1="200.5" y1="83.5" x2="233.303" y2="21.9279" gradientUnits="userSpaceOnUse">
<stop stop-color="#487EFF"/>
<stop offset="1" stop-color="#AEC7FF"/>
</linearGradient>
<linearGradient id="paint5_linear_33222_339055" x1="211.462" y1="62.4737" x2="213.363" y2="51.1436" gradientUnits="userSpaceOnUse">
<stop stop-color="#749DFF"/>
<stop offset="1" stop-color="#9CBAFF"/>
</linearGradient>
</defs>
</svg>
