<svg width="425" height="141" viewBox="0 0 425 141" fill="none" xmlns="http://www.w3.org/2000/svg">
<path d="M425 141H0C0 98.4741 95.1395 64 212.5 64C329.861 64 425 98.4741 425 141Z" fill="url(#paint0_radial_33222_339761)"/>
<ellipse cx="213" cy="84.5" rx="94" ry="17.5" fill="#DEEAFF"/>
<rect x="168.5" y="71.4287" width="1.42857" height="3.57143" fill="#3B4F8C"/>
<path d="M166 70.7143L169.214 60V73.5714L166 70.7143Z" fill="#A1C0F9"/>
<path d="M169.215 73.5714V60L173.143 70.3571L169.215 73.5714Z" fill="#6993E7"/>
<rect x="280.668" y="80.1904" width="1.52381" height="3.80952" fill="#3B4F8C"/>
<path d="M278 79.4286L281.429 68V82.4762L278 79.4286Z" fill="#A1C0F9"/>
<path d="M281.428 82.4762V68L285.618 79.0476L281.428 82.4762Z" fill="#6993E7"/>
<rect x="152.5" y="84" width="2" height="5" fill="#3B4F8C"/>
<path d="M149 83L153.5 68V87L149 83Z" fill="#A1C0F9"/>
<path d="M153.5 87V68L159 82.5L153.5 87Z" fill="#6993E7"/>
<path d="M184 35L173 49.5" stroke="url(#paint1_linear_33222_339761)" stroke-linejoin="round"/>
<path d="M217 26.5V45.5L222.5 47L255.5 35.5L217 26.5Z" fill="url(#paint2_linear_33222_339761)"/>
<path d="M217 26.5L184 35L217 46V26.5Z" fill="url(#paint3_linear_33222_339761)"/>
<path d="M222.5 46.5L184 35V74.5L222.5 91V46.5Z" fill="url(#paint4_linear_33222_339761)"/>
<path d="M255.5 35.5L222.5 47V91L256 74L255.5 35.5Z" fill="url(#paint5_linear_33222_339761)"/>
<path d="M255.5 35.5L266.5 52L234 68L222.5 46.5L255.5 35.5Z" fill="url(#paint6_linear_33222_339761)"/>
<path d="M184 55V35L173 49.5L184 55Z" fill="url(#paint7_linear_33222_339761)"/>
<path d="M235 10L228 4.5L254.5 0L235 10Z" fill="url(#paint8_linear_33222_339761)"/>
<path d="M235 18.5L254.5 0L235 10V18.5Z" fill="url(#paint9_linear_33222_339761)"/>
<path d="M238 11.5L254.5 0L247 16.5L238 11.5Z" fill="url(#paint10_linear_33222_339761)"/>
<path d="M222.5 46L234 68L266.5 52" stroke="url(#paint11_linear_33222_339761)" stroke-linejoin="round"/>
<path d="M253.665 35.5846L222.492 45.9757L185.866 35.0356L217.006 27.0148L253.665 35.5846Z" stroke="url(#paint12_linear_33222_339761)" stroke-linejoin="round"/>
<path d="M210.532 41.8272C210.437 42.0864 210.569 42.3738 210.829 42.4692C211.088 42.5646 211.375 42.4318 211.471 42.1727L210.532 41.8272ZM224 34.5L223.593 34.7906L224 34.5ZM216.5 36L216.999 35.9762L216.5 36ZM235.171 18.9698C235.431 18.8753 235.564 18.5883 235.47 18.3289C235.375 18.0694 235.088 17.9357 234.829 18.0302L235.171 18.9698ZM211.807 41.3054C211.912 41.0498 211.789 40.7578 211.534 40.6534C211.278 40.5489 210.986 40.6714 210.882 40.927L211.807 41.3054ZM211.676 39.1666C211.553 39.414 211.654 39.714 211.902 39.8366C212.149 39.9593 212.449 39.8581 212.572 39.6107L211.676 39.1666ZM213.46 37.9801C213.601 37.7431 213.524 37.4361 213.287 37.2944C213.05 37.1527 212.743 37.23 212.601 37.467L213.46 37.9801ZM213.671 35.8471C213.508 36.0701 213.557 36.3829 213.78 36.5458C214.002 36.7087 214.315 36.66 214.478 36.4371L213.671 35.8471ZM215.642 35.0177C215.83 34.8154 215.819 34.499 215.616 34.3111C215.414 34.1231 215.098 34.1347 214.91 34.337L215.642 35.0177ZM216.365 32.9976C216.146 33.1659 216.105 33.4798 216.273 33.6987C216.441 33.9176 216.755 33.9587 216.974 33.7904L216.365 32.9976ZM218.486 32.8927C218.741 32.7869 218.862 32.4943 218.756 32.2393C218.65 31.9842 218.357 31.8632 218.102 31.9691L218.486 32.8927ZM220.152 31.5614C219.876 31.5545 219.646 31.7727 219.639 32.0487C219.632 32.3248 219.851 32.5542 220.127 32.5611L220.152 31.5614ZM221.706 33.0005C221.948 33.1339 222.252 33.046 222.385 32.8042C222.519 32.5624 222.431 32.2583 222.189 32.1249L221.706 33.0005ZM223.777 33.421C223.593 33.2156 223.276 33.1988 223.071 33.3835C222.866 33.5681 222.849 33.8842 223.034 34.0896L223.777 33.421ZM223.98 35.6164C224.04 35.8858 224.308 36.055 224.577 35.9944C224.847 35.9338 225.016 35.6662 224.955 35.3968L223.98 35.6164ZM224.327 37.8974C224.496 37.6792 224.457 37.3651 224.238 37.1959C224.02 37.0267 223.706 37.0665 223.537 37.2847L224.327 37.8974ZM221.966 38.4786C221.716 38.5947 221.607 38.8919 221.723 39.1425C221.839 39.393 222.137 39.502 222.387 39.3858L221.966 38.4786ZM220.038 39.9522C220.314 39.9448 220.532 39.715 220.524 39.4389C220.517 39.1629 220.287 38.9451 220.011 38.9526L220.038 39.9522ZM218.182 38.4831C217.953 38.329 217.642 38.3898 217.488 38.6189C217.334 38.8481 217.394 39.1588 217.624 39.3129L218.182 38.4831ZM216.185 37.2326C216.259 37.4988 216.534 37.6551 216.8 37.5817C217.066 37.5082 217.223 37.2329 217.149 36.9667L216.185 37.2326ZM217.065 35.1579C217.117 34.8866 216.939 34.6248 216.667 34.5731C216.396 34.5214 216.134 34.6994 216.083 34.9707L217.065 35.1579ZM216.742 33.0731C216.622 33.3217 216.726 33.6206 216.975 33.7408C217.223 33.861 217.522 33.7569 217.642 33.5082L216.742 33.0731ZM218.552 31.9403C218.705 31.7106 218.643 31.4002 218.413 31.2469C218.184 31.0936 217.873 31.1556 217.72 31.3852L218.552 31.9403ZM218.864 29.8341C218.691 30.0493 218.725 30.3641 218.94 30.5371C219.155 30.7101 219.47 30.6759 219.643 30.4607L218.864 29.8341ZM220.851 29.0585C221.037 28.855 221.024 28.5387 220.82 28.3521C220.617 28.1655 220.3 28.1792 220.114 28.3828L220.851 29.0585ZM221.441 27.0099C221.245 27.2035 221.242 27.52 221.435 27.7169C221.629 27.9139 221.946 27.9165 222.143 27.7229L221.441 27.0099ZM223.5 26.4483C223.705 26.2637 223.722 25.9476 223.537 25.7422C223.353 25.5368 223.036 25.52 222.831 25.7046L223.5 26.4483ZM224.273 24.4609C224.061 24.6369 224.031 24.9521 224.207 25.1649C224.383 25.3776 224.698 25.4073 224.911 25.2312L224.273 24.4609ZM226.37 24.0708C226.59 23.9032 226.632 23.5894 226.464 23.3699C226.297 23.1505 225.983 23.1084 225.763 23.276L226.37 24.0708ZM227.299 22.1505C227.073 22.3093 227.019 22.6211 227.177 22.8471C227.336 23.073 227.648 23.1275 227.874 22.9687L227.299 22.1505ZM229.42 21.9294C229.653 21.7803 229.72 21.471 229.571 21.2386C229.422 21.0062 229.113 20.9387 228.88 21.0878L229.42 21.9294ZM230.509 20.095C230.27 20.2329 230.188 20.5387 230.326 20.7779C230.464 21.0171 230.77 21.0992 231.009 20.9612L230.509 20.095ZM232.641 20.0779C232.888 19.9536 232.987 19.653 232.863 19.4064C232.738 19.1598 232.438 19.0607 232.191 19.185L232.641 20.0779ZM233.933 18.3806C233.678 18.4869 233.557 18.7796 233.664 19.0345C233.77 19.2894 234.063 19.4099 234.318 19.3037L233.933 18.3806ZM211.471 42.1727C211.578 41.8812 211.69 41.5919 211.807 41.3054L210.882 40.927C210.76 41.2244 210.643 41.5247 210.532 41.8272L211.471 42.1727ZM212.572 39.6107C212.851 39.0466 213.148 38.5011 213.46 37.9801L212.601 37.467C212.276 38.0114 211.967 38.58 211.676 39.1666L212.572 39.6107ZM214.478 36.4371C214.854 35.9222 215.244 35.4466 215.642 35.0177L214.91 34.337C214.482 34.7976 214.068 35.304 213.671 35.8471L214.478 36.4371ZM216.974 33.7904C217.479 33.4022 217.985 33.1002 218.486 32.8927L218.102 31.9691C217.507 32.216 216.926 32.5664 216.365 32.9976L216.974 33.7904ZM220.127 32.5611C220.656 32.5743 221.183 32.7121 221.706 33.0005L222.189 32.1249C221.529 31.7609 220.845 31.5787 220.152 31.5614L220.127 32.5611ZM223.034 34.0896C223.221 34.2986 223.408 34.5318 223.593 34.7906L224.407 34.2094C224.202 33.9226 223.992 33.66 223.777 33.421L223.034 34.0896ZM223.593 34.7906C223.8 35.0808 223.922 35.3577 223.98 35.6164L224.955 35.3968C224.865 34.9941 224.683 34.5959 224.407 34.2094L223.593 34.7906ZM223.537 37.2847C223.169 37.759 222.616 38.1776 221.966 38.4786L222.387 39.3858C223.151 39.0317 223.843 38.5222 224.327 37.8974L223.537 37.2847ZM220.011 38.9526C219.318 38.9712 218.682 38.8196 218.182 38.4831L217.624 39.3129C218.336 39.792 219.191 39.9751 220.038 39.9522L220.011 38.9526ZM217.149 36.9667C217.07 36.6788 217.017 36.35 216.999 35.9762L216.001 36.0238C216.021 36.4631 216.084 36.8658 216.185 37.2326L217.149 36.9667ZM216.999 35.9762C216.987 35.7253 217.009 35.4523 217.065 35.1579L216.083 34.9707C216.014 35.33 215.984 35.6825 216.001 36.0238L216.999 35.9762ZM217.642 33.5082C217.884 33.0082 218.189 32.4833 218.552 31.9403L217.72 31.3852C217.337 31.9589 217.007 32.524 216.742 33.0731L217.642 33.5082ZM219.643 30.4607C220.015 29.9978 220.419 29.5291 220.851 29.0585L220.114 28.3828C219.669 28.8678 219.251 29.3528 218.864 29.8341L219.643 30.4607ZM222.143 27.7229C222.578 27.2952 223.031 26.8693 223.5 26.4483L222.831 25.7046C222.352 26.1352 221.888 26.5712 221.441 27.0099L222.143 27.7229ZM224.911 25.2312C225.388 24.8362 225.876 24.4485 226.37 24.0708L225.763 23.276C225.259 23.6616 224.761 24.0575 224.273 24.4609L224.911 25.2312ZM227.874 22.9687C228.387 22.6082 228.904 22.2609 229.42 21.9294L228.88 21.0878C228.351 21.4271 227.823 21.7822 227.299 22.1505L227.874 22.9687ZM231.009 20.9612C231.559 20.6441 232.104 20.3486 232.641 20.0779L232.191 19.185C231.636 19.4647 231.074 19.7692 230.509 20.095L231.009 20.9612ZM234.318 19.3037C234.607 19.1831 234.892 19.0716 235.171 18.9698L234.829 18.0302C234.534 18.1376 234.235 18.2546 233.933 18.3806L234.318 19.3037Z" fill="#9ECAFF"/>
<g filter="url(#filter0_d_33222_339761)">
<path d="M189 44.3162C189 43.6687 189.634 43.2115 190.249 43.4162L215.351 51.7838C215.739 51.9129 216 52.2754 216 52.6838C216 53.3313 215.366 53.7885 214.751 53.5838L189.649 45.2162C189.261 45.0871 189 44.7246 189 44.3162Z" fill="#F6FFFF"/>
</g>
<g filter="url(#filter1_d_33222_339761)">
<path d="M189 53.3511C189 52.6974 189.653 52.2449 190.265 52.4744L204.392 57.7722C204.758 57.9092 205 58.2586 205 58.6489C205 59.3026 204.347 59.7551 203.735 59.5256L189.608 54.2278C189.242 54.0908 189 53.7414 189 53.3511Z" fill="#F6FFFF"/>
</g>
<g filter="url(#filter2_d_33222_339761)">
<path d="M189 62.3846C189 61.7259 189.67 61.2792 190.278 61.5325L200.432 65.7633C200.776 65.9066 201 66.2427 201 66.6154C201 67.2741 200.33 67.7208 199.722 67.4675L189.568 63.2367C189.224 63.0934 189 62.7573 189 62.3846Z" fill="#F6FFFF"/>
</g>
<defs>
<filter id="filter0_d_33222_339761" x="188" y="43.3667" width="29" height="12.2666" filterUnits="userSpaceOnUse" color-interpolation-filters="sRGB">
<feFlood flood-opacity="0" result="BackgroundImageFix"/>
<feColorMatrix in="SourceAlpha" type="matrix" values="0 0 0 0 0 0 0 0 0 0 0 0 0 0 0 0 0 0 127 0" result="hardAlpha"/>
<feOffset dy="1"/>
<feGaussianBlur stdDeviation="0.5"/>
<feComposite in2="hardAlpha" operator="out"/>
<feColorMatrix type="matrix" values="0 0 0 0 0 0 0 0 0 0 0 0 0 0 0 0 0 0 0.25 0"/>
<feBlend mode="normal" in2="BackgroundImageFix" result="effect1_dropShadow_33222_339761"/>
<feBlend mode="normal" in="SourceGraphic" in2="effect1_dropShadow_33222_339761" result="shape"/>
</filter>
<filter id="filter1_d_33222_339761" x="188" y="52.4141" width="18" height="9.17188" filterUnits="userSpaceOnUse" color-interpolation-filters="sRGB">
<feFlood flood-opacity="0" result="BackgroundImageFix"/>
<feColorMatrix in="SourceAlpha" type="matrix" values="0 0 0 0 0 0 0 0 0 0 0 0 0 0 0 0 0 0 127 0" result="hardAlpha"/>
<feOffset dy="1"/>
<feGaussianBlur stdDeviation="0.5"/>
<feComposite in2="hardAlpha" operator="out"/>
<feColorMatrix type="matrix" values="0 0 0 0 0 0 0 0 0 0 0 0 0 0 0 0 0 0 0.25 0"/>
<feBlend mode="normal" in2="BackgroundImageFix" result="effect1_dropShadow_33222_339761"/>
<feBlend mode="normal" in="SourceGraphic" in2="effect1_dropShadow_33222_339761" result="shape"/>
</filter>
<filter id="filter2_d_33222_339761" x="188" y="61.4607" width="14" height="8.07861" filterUnits="userSpaceOnUse" color-interpolation-filters="sRGB">
<feFlood flood-opacity="0" result="BackgroundImageFix"/>
<feColorMatrix in="SourceAlpha" type="matrix" values="0 0 0 0 0 0 0 0 0 0 0 0 0 0 0 0 0 0 127 0" result="hardAlpha"/>
<feOffset dy="1"/>
<feGaussianBlur stdDeviation="0.5"/>
<feComposite in2="hardAlpha" operator="out"/>
<feColorMatrix type="matrix" values="0 0 0 0 0 0 0 0 0 0 0 0 0 0 0 0 0 0 0.25 0"/>
<feBlend mode="normal" in2="BackgroundImageFix" result="effect1_dropShadow_33222_339761"/>
<feBlend mode="normal" in="SourceGraphic" in2="effect1_dropShadow_33222_339761" result="shape"/>
</filter>
<radialGradient id="paint0_radial_33222_339761" cx="0" cy="0" r="1" gradientUnits="userSpaceOnUse" gradientTransform="translate(213.278 68.9149) rotate(90.6187) scale(72.0893 397.857)">
<stop offset="0.124566" stop-color="#CBDEFF"/>
<stop offset="0.293125" stop-color="#C9DEFF" stop-opacity="0.47"/>
<stop offset="0.659421" stop-color="#CFE2FF" stop-opacity="0"/>
</radialGradient>
<linearGradient id="paint1_linear_33222_339761" x1="175.22" y1="45.6767" x2="191.934" y2="65.9016" gradientUnits="userSpaceOnUse">
<stop stop-color="#A8D0FF"/>
<stop offset="0.887036" stop-color="#F6FFFF"/>
</linearGradient>
<linearGradient id="paint2_linear_33222_339761" x1="232" y1="51.5" x2="231.5" y2="25" gradientUnits="userSpaceOnUse">
<stop stop-color="#2456B9"/>
<stop offset="0.844167" stop-color="#80A5F5"/>
</linearGradient>
<linearGradient id="paint3_linear_33222_339761" x1="203.5" y1="52" x2="204.5" y2="26" gradientUnits="userSpaceOnUse">
<stop stop-color="#2456B9"/>
<stop offset="0.670695" stop-color="#80A5F5"/>
</linearGradient>
<linearGradient id="paint4_linear_33222_339761" x1="202.767" y1="35" x2="202.767" y2="91" gradientUnits="userSpaceOnUse">
<stop stop-color="#B7E1FF"/>
<stop offset="1" stop-color="#86B4FF"/>
</linearGradient>
<linearGradient id="paint5_linear_33222_339761" x1="249" y1="34.5" x2="250" y2="90" gradientUnits="userSpaceOnUse">
<stop offset="0.384991" stop-color="#2456B9"/>
<stop offset="0.815688" stop-color="#80A5F5"/>
</linearGradient>
<linearGradient id="paint6_linear_33222_339761" x1="267" y1="55" x2="226.5" y2="43" gradientUnits="userSpaceOnUse">
<stop stop-color="#8DB9FF"/>
<stop offset="1" stop-color="#5688EB"/>
</linearGradient>
<linearGradient id="paint7_linear_33222_339761" x1="185" y1="35" x2="178.5" y2="55" gradientUnits="userSpaceOnUse">
<stop stop-color="#2456B9"/>
<stop offset="0.836287" stop-color="#80A5F5"/>
</linearGradient>
<linearGradient id="paint8_linear_33222_339761" x1="240.918" y1="0" x2="240.918" y2="10" gradientUnits="userSpaceOnUse">
<stop stop-color="#B7E1FF"/>
<stop offset="1" stop-color="#86B4FF"/>
</linearGradient>
<linearGradient id="paint9_linear_33222_339761" x1="244.75" y1="0" x2="244.75" y2="18.5" gradientUnits="userSpaceOnUse">
<stop stop-color="#2456B9"/>
<stop offset="1" stop-color="#80A5F5"/>
</linearGradient>
<linearGradient id="paint10_linear_33222_339761" x1="246.043" y1="0" x2="246.043" y2="16.5" gradientUnits="userSpaceOnUse">
<stop stop-color="#B7E1FF"/>
<stop offset="1" stop-color="#86B4FF"/>
</linearGradient>
<linearGradient id="paint11_linear_33222_339761" x1="219.72" y1="45.6767" x2="236.434" y2="65.9016" gradientUnits="userSpaceOnUse">
<stop offset="0.268914" stop-color="#CEE7FF"/>
<stop offset="0.887036" stop-color="#99C5FF"/>
</linearGradient>
<linearGradient id="paint12_linear_33222_339761" x1="266" y1="55.5" x2="269.213" y2="34.6698" gradientUnits="userSpaceOnUse">
<stop stop-color="#A8D0FF"/>
<stop offset="0.918577" stop-color="#DFF7FC"/>
</linearGradient>
</defs>
</svg>
