<svg width="425" height="141" viewBox="0 0 425 141" fill="none" xmlns="http://www.w3.org/2000/svg">
<path d="M425 141H0C0 98.4741 95.1395 64 212.5 64C329.861 64 425 98.4741 425 141Z" fill="url(#paint0_radial_33222_339022)"/>
<ellipse cx="213" cy="84.5" rx="94" ry="17.5" fill="#DEEAFF"/>
<ellipse rx="17.5" ry="2" transform="matrix(1 0 0 -1 218.5 80)" fill="#CBDEFF"/>
<rect x="168.5" y="71.4287" width="1.42857" height="3.57143" fill="#3B4F8C"/>
<path d="M166 70.7143L169.214 60V73.5714L166 70.7143Z" fill="#A1C0F9"/>
<path d="M169.215 73.5714V60L173.143 70.3571L169.215 73.5714Z" fill="#6993E7"/>
<rect x="280.668" y="80.1904" width="1.52381" height="3.80952" fill="#3B4F8C"/>
<path d="M278 79.4286L281.429 68V82.4762L278 79.4286Z" fill="#A1C0F9"/>
<path d="M281.428 82.4762V68L285.618 79.0476L281.428 82.4762Z" fill="#6993E7"/>
<rect x="152.5" y="84" width="2" height="5" fill="#3B4F8C"/>
<path d="M149 83L153.5 68V87L149 83Z" fill="#A1C0F9"/>
<path d="M153.5 87V68L159 82.5L153.5 87Z" fill="#6993E7"/>
<path d="M251.069 16.3556L222.452 9.68526C221.365 9.43183 220.281 10.1176 220.044 11.2086L209.955 57.6633C209.723 58.7311 210.391 59.7874 211.455 60.0355L240.072 66.7058C241.16 66.9593 242.244 66.2735 242.481 65.1825L252.57 18.7278C252.802 17.66 252.134 16.6037 251.069 16.3556Z" fill="url(#paint1_linear_33222_339022)"/>
<g opacity="0.22" filter="url(#filter0_f_33222_339022)">
<line x1="242" y1="16" x2="242" y2="63" stroke="#537FD8" stroke-width="2" stroke-linecap="round"/>
</g>
<path d="M240.248 10.2204L207.178 9.83899C206.062 9.82612 205.151 10.7297 205.155 11.8461L205.347 65.0758C205.351 66.1686 206.232 67.0558 207.324 67.0684L240.394 67.4499C241.51 67.4627 242.421 66.5592 242.417 65.4428L242.225 12.2131C242.221 11.1203 241.34 10.233 240.248 10.2204Z" fill="url(#paint2_linear_33222_339022)"/>
<g opacity="0.24" filter="url(#filter1_f_33222_339022)">
<line x1="232.171" y1="10.7932" x2="241.793" y2="60.8291" stroke="#537FD8" stroke-width="2" stroke-linecap="round"/>
</g>
<path d="M181.033 8.51046L179.945 11.4799L192.627 76.5133C192.832 77.5632 193.827 78.2662 194.885 78.1086L240.001 71.3909C240.467 71.3216 240.893 71.0902 241.205 70.7375L243.309 68.358L181.033 8.51046Z" fill="url(#paint3_linear_33222_339022)"/>
<path d="M228.225 0.709611L182.653 7.19864C181.517 7.36038 180.75 8.44256 180.973 9.56796L193.873 74.5683C194.079 75.6103 195.065 76.3088 196.116 76.1591L241.688 69.6701C242.824 69.5083 243.591 68.4261 243.368 67.3007L230.469 2.30034C230.262 1.25839 229.277 0.559865 228.225 0.709611Z" fill="url(#paint4_linear_33222_339022)"/>
<g filter="url(#filter2_d_33222_339022)">
<path fill-rule="evenodd" clip-rule="evenodd" d="M195.578 64.1179C195.08 63.8791 194.87 63.2818 195.109 62.7838L220.19 10.4738C220.429 9.97576 221.026 9.76562 221.524 10.0044C222.022 10.2432 222.232 10.8405 221.993 11.3385L196.912 63.6485C196.673 64.1465 196.076 64.3566 195.578 64.1179ZM197.468 32.4214C197.569 32.9644 198.091 33.3227 198.634 33.2217C199.177 33.1207 199.535 32.5986 199.434 32.0557L197.971 24.1906L205.836 22.7275C206.379 22.6265 206.737 22.1044 206.636 21.5615C206.535 21.0185 206.013 20.6602 205.47 20.7612L197.605 22.2243L196.325 15.3424C196.224 14.7994 195.702 14.4411 195.159 14.5422C194.616 14.6432 194.258 15.1652 194.359 15.7082L195.639 22.5901L188.757 23.8703C188.214 23.9713 187.856 24.4934 187.957 25.0364C188.058 25.5793 188.58 25.9376 189.123 25.8366L196.005 24.5564L197.468 32.4214ZM210.563 48.3474C210.478 47.8017 210.852 47.2904 211.397 47.2054L228.195 44.5885C228.74 44.5035 229.252 44.877 229.337 45.4227C229.422 45.9684 229.048 46.4797 228.502 46.5647L211.705 49.1816C211.159 49.2666 210.648 48.8931 210.563 48.3474ZM211.795 56.2521C211.71 55.7064 212.083 55.1951 212.629 55.1101L229.426 52.4932C229.972 52.4082 230.483 52.7816 230.568 53.3273C230.653 53.873 230.28 54.3843 229.734 54.4694L212.937 57.0862C212.391 57.1712 211.88 56.7978 211.795 56.2521Z" fill="#F1FCFF"/>
</g>
<defs>
<filter id="filter0_f_33222_339022" x="240" y="14" width="4" height="51" filterUnits="userSpaceOnUse" color-interpolation-filters="sRGB">
<feFlood flood-opacity="0" result="BackgroundImageFix"/>
<feBlend mode="normal" in="SourceGraphic" in2="BackgroundImageFix" result="shape"/>
<feGaussianBlur stdDeviation="0.5" result="effect1_foregroundBlur_33222_339022"/>
</filter>
<filter id="filter1_f_33222_339022" x="230.171" y="8.79297" width="13.6226" height="54.0364" filterUnits="userSpaceOnUse" color-interpolation-filters="sRGB">
<feFlood flood-opacity="0" result="BackgroundImageFix"/>
<feBlend mode="normal" in="SourceGraphic" in2="BackgroundImageFix" result="shape"/>
<feGaussianBlur stdDeviation="0.5" result="effect1_foregroundBlur_33222_339022"/>
</filter>
<filter id="filter2_d_33222_339022" x="187.94" y="9.90576" width="42.6401" height="54.8105" filterUnits="userSpaceOnUse" color-interpolation-filters="sRGB">
<feFlood flood-opacity="0" result="BackgroundImageFix"/>
<feColorMatrix in="SourceAlpha" type="matrix" values="0 0 0 0 0 0 0 0 0 0 0 0 0 0 0 0 0 0 127 0" result="hardAlpha"/>
<feOffset dy="0.5"/>
<feComposite in2="hardAlpha" operator="out"/>
<feColorMatrix type="matrix" values="0 0 0 0 0 0 0 0 0 0 0 0 0 0 0 0 0 0 0.15 0"/>
<feBlend mode="normal" in2="BackgroundImageFix" result="effect1_dropShadow_33222_339022"/>
<feBlend mode="normal" in="SourceGraphic" in2="effect1_dropShadow_33222_339022" result="shape"/>
</filter>
<radialGradient id="paint0_radial_33222_339022" cx="0" cy="0" r="1" gradientUnits="userSpaceOnUse" gradientTransform="translate(213.278 68.9149) rotate(90.6187) scale(72.0893 397.857)">
<stop offset="0.124566" stop-color="#CBDEFF"/>
<stop offset="0.293125" stop-color="#C9DEFF" stop-opacity="0.47"/>
<stop offset="0.659421" stop-color="#CFE2FF" stop-opacity="0"/>
</radialGradient>
<linearGradient id="paint1_linear_33222_339022" x1="222" y1="70" x2="255.065" y2="28.5571" gradientUnits="userSpaceOnUse">
<stop stop-color="#96B5FF"/>
<stop offset="1" stop-color="#BED2FF"/>
</linearGradient>
<linearGradient id="paint2_linear_33222_339022" x1="254" y1="42.5" x2="200.597" y2="27.1379" gradientUnits="userSpaceOnUse">
<stop stop-color="#96B5FF"/>
<stop offset="1" stop-color="#BED2FF"/>
</linearGradient>
<linearGradient id="paint3_linear_33222_339022" x1="201.322" y1="-27.9282" x2="132.24" y2="41.5075" gradientUnits="userSpaceOnUse">
<stop offset="0.0435924" stop-color="#CDDCFF"/>
<stop offset="1" stop-color="#ECF2FF"/>
</linearGradient>
<linearGradient id="paint4_linear_33222_339022" x1="247.959" y1="41.4827" x2="183.509" y2="38.0992" gradientUnits="userSpaceOnUse">
<stop stop-color="#487FFF"/>
<stop offset="1" stop-color="#AEC7FF"/>
</linearGradient>
</defs>
</svg>
