<svg width="425" height="141" viewBox="0 0 425 141" fill="none" xmlns="http://www.w3.org/2000/svg">
<path d="M425 141H0C0 98.4741 95.1395 64 212.5 64C329.861 64 425 98.4741 425 141Z" fill="url(#paint0_radial_33222_339860)"/>
<ellipse cx="213" cy="84.5" rx="94" ry="17.5" fill="#DEEAFF"/>
<rect x="305.668" y="80.1904" width="1.52381" height="3.80952" fill="#3B4F8C"/>
<path d="M303 79.4286L306.429 68V82.4762L303 79.4286Z" fill="#A1C0F9"/>
<path d="M306.428 82.4762V68L310.618 79.0476L306.428 82.4762Z" fill="#6993E7"/>
<rect x="120.5" y="79" width="2" height="5" fill="#3B4F8C"/>
<path d="M117 78L121.5 63V82L117 78Z" fill="#A1C0F9"/>
<path d="M121.5 82V63L127 77.5L121.5 82Z" fill="#6993E7"/>
<ellipse cx="211.835" cy="79.3253" rx="59.8352" ry="2.09948" fill="#CBDEFF"/>
<path d="M178.243 25.785L199.238 25.785C199.817 25.785 200.287 26.255 200.287 26.8347V63.5599H155.148V58.3134C155.148 52.5423 155.673 49.3944 157.248 46.2465C158.312 44.1189 162.06 38.2548 166.171 32.6054C170.37 26.8345 175.793 25.6101 178.243 25.785Z" fill="url(#paint1_linear_33222_339860)"/>
<g filter="url(#filter0_d_33222_339860)">
<path d="M177.194 31.0183H193.99C194.569 31.0183 195.039 31.4883 195.039 32.0681V47.8141C195.039 48.3939 194.569 48.8639 193.99 48.8639H163.409C162.571 48.8639 162.069 47.9307 162.531 47.2314C164.247 44.6371 166.974 40.4802 169.321 36.7919C172.26 32.173 174.569 31.0183 177.194 31.0183Z" fill="#F6FFFF"/>
</g>
<rect x="200.287" y="27.8687" width="4.19896" height="35.6912" fill="url(#paint2_linear_33222_339860)"/>
<path d="M204.767 20.9597C204.767 20.3799 205.237 19.9099 205.817 19.9099H265.582C266.162 19.9099 266.632 20.3799 266.632 20.9597V63.5791H204.767V20.9597Z" fill="url(#paint3_linear_33222_339860)"/>
<g filter="url(#filter1_d_33222_339860)">
<path fill-rule="evenodd" clip-rule="evenodd" d="M155.148 62.0177C155.148 62.2788 155.341 62.5043 155.602 62.5093C155.626 62.5098 155.65 62.51 155.674 62.51C157.703 62.51 159.348 60.8651 159.348 58.836C159.348 56.8068 157.703 55.1619 155.674 55.1619C155.65 55.1619 155.626 55.1621 155.602 55.1626C155.341 55.1676 155.148 55.3931 155.148 55.6542V62.0177Z" fill="#F6FFFF"/>
</g>
<path fill-rule="evenodd" clip-rule="evenodd" d="M184.702 49.9128C184.063 49.9128 183.565 50.4981 183.893 51.0463C184.428 51.9395 185.405 52.5375 186.522 52.5375C187.639 52.5375 188.616 51.9395 189.151 51.0463C189.479 50.4981 188.981 49.9128 188.342 49.9128L184.702 49.9128Z" fill="url(#paint4_linear_33222_339860)"/>
<rect x="153.05" y="63.5596" width="115.471" height="6.29844" rx="2.09948" fill="url(#paint5_linear_33222_339860)"/>
<path d="M184.542 69.0201C184.542 74.9342 184.542 69.8587 184.542 69.8587C178.165 69.8587 161.448 69.8587 161.448 69.8587C161.448 62.8981 166.618 58.3115 172.995 58.3115C179.372 58.3115 184.542 63.1059 184.542 69.0201Z" fill="url(#paint6_linear_33222_339860)"/>
<path d="M224.432 69.0201C224.432 74.9342 224.432 69.8587 224.432 69.8587C218.054 69.8587 201.337 69.8587 201.337 69.8587C201.337 62.8981 206.507 58.3115 212.885 58.3115C219.262 58.3115 224.432 63.1059 224.432 69.0201Z" fill="url(#paint7_linear_33222_339860)"/>
<path d="M264.321 69.0201C264.321 74.9342 264.321 69.8587 264.321 69.8587C257.944 69.8587 241.227 69.8587 241.227 69.8587C241.227 62.8981 246.397 58.3115 252.774 58.3115C259.151 58.3115 264.321 63.1059 264.321 69.0201Z" fill="url(#paint8_linear_33222_339860)"/>
<circle cx="172.994" cy="69.8585" r="9.44766" fill="url(#paint9_linear_33222_339860)"/>
<circle cx="252.775" cy="69.8585" r="9.44766" fill="url(#paint10_linear_33222_339860)"/>
<circle cx="212.886" cy="69.8585" r="9.44766" fill="url(#paint11_linear_33222_339860)"/>
<g filter="url(#filter2_d_33222_339860)">
<circle cx="172.994" cy="69.8589" r="4.19896" fill="#F6FFFF"/>
</g>
<g filter="url(#filter3_d_33222_339860)">
<circle cx="252.776" cy="69.8589" r="4.19896" fill="#F6FFFF"/>
</g>
<g filter="url(#filter4_d_33222_339860)">
<circle cx="212.885" cy="69.8589" r="4.19896" fill="#F6FFFF"/>
</g>
<path d="M233.668 42.8276L216.233 49.876L242.943 52.4728L258.894 45.4244L233.668 42.8276Z" fill="url(#paint12_linear_33222_339860)"/>
<g filter="url(#filter5_d_33222_339860)">
<path d="M229.27 32.3208L211.835 42.3369C221.332 50.3498 235.824 51.8584 241.883 51.6111L257.093 37.8853C239.287 37.2918 231.125 33.9283 229.27 32.3208Z" fill="#F6FFFF"/>
</g>
<path d="M221.48 40.8536L228.528 36.7729" stroke="#5789EC" stroke-width="0.741934" stroke-linecap="round"/>
<path d="M225.19 40.8537L228.9 38.6279" stroke="#5789EC" stroke-width="0.22258" stroke-linecap="round"/>
<path d="M223.335 45.6756L236.319 37.8853" stroke="#5789EC" stroke-width="0.22258" stroke-linecap="round"/>
<path d="M225.931 47.1598L238.544 38.9985" stroke="#5789EC" stroke-width="0.22258" stroke-linecap="round"/>
<path d="M229.641 47.9013L237.06 42.7078" stroke="#5789EC" stroke-width="0.22258" stroke-linecap="round"/>
<path d="M232.609 48.2728L237.802 44.9341" stroke="#5789EC" stroke-width="0.22258" stroke-linecap="round"/>
<g filter="url(#filter6_f_33222_339860)">
<path d="M252.075 37.6327L242.977 42.1998L248.618 37.3416L252.075 37.6327Z" fill="url(#paint13_linear_33222_339860)"/>
</g>
<path fill-rule="evenodd" clip-rule="evenodd" d="M248.43 26.9038L243.417 39.3664L243.429 39.3647C244.01 39.2821 244.59 39.5181 244.949 39.9824L249.961 27.5198C250.132 27.0969 249.927 26.6161 249.504 26.446C249.081 26.2759 248.6 26.4809 248.43 26.9038ZM243.312 39.6314L243.217 42.0091L244.794 40.2275L244.776 40.2058C244.423 39.7705 243.867 39.5525 243.312 39.6314Z" fill="url(#paint14_linear_33222_339860)"/>
<rect x="132.5" y="90.4287" width="1.42857" height="3.57143" fill="#3B4F8C"/>
<path d="M130 89.7143L133.214 79V92.5714L130 89.7143Z" fill="#A1C0F9"/>
<path d="M133.215 92.5714V79L137.143 89.3571L133.215 92.5714Z" fill="#6993E7"/>
<defs>
<filter id="filter0_d_33222_339860" x="161.305" y="31.0183" width="34.784" height="19.9449" filterUnits="userSpaceOnUse" color-interpolation-filters="sRGB">
<feFlood flood-opacity="0" result="BackgroundImageFix"/>
<feColorMatrix in="SourceAlpha" type="matrix" values="0 0 0 0 0 0 0 0 0 0 0 0 0 0 0 0 0 0 127 0" result="hardAlpha"/>
<feOffset dy="1.04974"/>
<feGaussianBlur stdDeviation="0.52487"/>
<feComposite in2="hardAlpha" operator="out"/>
<feColorMatrix type="matrix" values="0 0 0 0 0 0 0 0 0 0 0 0 0 0 0 0 0 0 0.25 0"/>
<feBlend mode="normal" in2="BackgroundImageFix" result="effect1_dropShadow_33222_339860"/>
<feBlend mode="normal" in="SourceGraphic" in2="effect1_dropShadow_33222_339860" result="shape"/>
</filter>
<filter id="filter1_d_33222_339860" x="154.099" y="55.1619" width="6.29919" height="9.44762" filterUnits="userSpaceOnUse" color-interpolation-filters="sRGB">
<feFlood flood-opacity="0" result="BackgroundImageFix"/>
<feColorMatrix in="SourceAlpha" type="matrix" values="0 0 0 0 0 0 0 0 0 0 0 0 0 0 0 0 0 0 127 0" result="hardAlpha"/>
<feOffset dy="1.04974"/>
<feGaussianBlur stdDeviation="0.52487"/>
<feComposite in2="hardAlpha" operator="out"/>
<feColorMatrix type="matrix" values="0 0 0 0 0 0 0 0 0 0 0 0 0 0 0 0 0 0 0.25 0"/>
<feBlend mode="normal" in2="BackgroundImageFix" result="effect1_dropShadow_33222_339860"/>
<feBlend mode="normal" in="SourceGraphic" in2="effect1_dropShadow_33222_339860" result="shape"/>
</filter>
<filter id="filter2_d_33222_339860" x="167.746" y="65.6599" width="10.4974" height="10.4974" filterUnits="userSpaceOnUse" color-interpolation-filters="sRGB">
<feFlood flood-opacity="0" result="BackgroundImageFix"/>
<feColorMatrix in="SourceAlpha" type="matrix" values="0 0 0 0 0 0 0 0 0 0 0 0 0 0 0 0 0 0 127 0" result="hardAlpha"/>
<feOffset dy="1.04974"/>
<feGaussianBlur stdDeviation="0.52487"/>
<feComposite in2="hardAlpha" operator="out"/>
<feColorMatrix type="matrix" values="0 0 0 0 0 0 0 0 0 0 0 0 0 0 0 0 0 0 0.25 0"/>
<feBlend mode="normal" in2="BackgroundImageFix" result="effect1_dropShadow_33222_339860"/>
<feBlend mode="normal" in="SourceGraphic" in2="effect1_dropShadow_33222_339860" result="shape"/>
</filter>
<filter id="filter3_d_33222_339860" x="247.527" y="65.6599" width="10.4974" height="10.4974" filterUnits="userSpaceOnUse" color-interpolation-filters="sRGB">
<feFlood flood-opacity="0" result="BackgroundImageFix"/>
<feColorMatrix in="SourceAlpha" type="matrix" values="0 0 0 0 0 0 0 0 0 0 0 0 0 0 0 0 0 0 127 0" result="hardAlpha"/>
<feOffset dy="1.04974"/>
<feGaussianBlur stdDeviation="0.52487"/>
<feComposite in2="hardAlpha" operator="out"/>
<feColorMatrix type="matrix" values="0 0 0 0 0 0 0 0 0 0 0 0 0 0 0 0 0 0 0.25 0"/>
<feBlend mode="normal" in2="BackgroundImageFix" result="effect1_dropShadow_33222_339860"/>
<feBlend mode="normal" in="SourceGraphic" in2="effect1_dropShadow_33222_339860" result="shape"/>
</filter>
<filter id="filter4_d_33222_339860" x="207.637" y="65.6599" width="10.4974" height="10.4974" filterUnits="userSpaceOnUse" color-interpolation-filters="sRGB">
<feFlood flood-opacity="0" result="BackgroundImageFix"/>
<feColorMatrix in="SourceAlpha" type="matrix" values="0 0 0 0 0 0 0 0 0 0 0 0 0 0 0 0 0 0 127 0" result="hardAlpha"/>
<feOffset dy="1.04974"/>
<feGaussianBlur stdDeviation="0.52487"/>
<feComposite in2="hardAlpha" operator="out"/>
<feColorMatrix type="matrix" values="0 0 0 0 0 0 0 0 0 0 0 0 0 0 0 0 0 0 0.25 0"/>
<feBlend mode="normal" in2="BackgroundImageFix" result="effect1_dropShadow_33222_339860"/>
<feBlend mode="normal" in="SourceGraphic" in2="effect1_dropShadow_33222_339860" result="shape"/>
</filter>
<filter id="filter5_d_33222_339860" x="210.735" y="32.3208" width="47.4571" height="21.5142" filterUnits="userSpaceOnUse" color-interpolation-filters="sRGB">
<feFlood flood-opacity="0" result="BackgroundImageFix"/>
<feColorMatrix in="SourceAlpha" type="matrix" values="0 0 0 0 0 0 0 0 0 0 0 0 0 0 0 0 0 0 127 0" result="hardAlpha"/>
<feOffset dy="1.09965"/>
<feGaussianBlur stdDeviation="0.549826"/>
<feComposite in2="hardAlpha" operator="out"/>
<feColorMatrix type="matrix" values="0 0 0 0 0.160784 0 0 0 0 0.372549 0 0 0 0 0.788235 0 0 0 0.34 0"/>
<feBlend mode="normal" in2="BackgroundImageFix" result="effect1_dropShadow_33222_339860"/>
<feBlend mode="normal" in="SourceGraphic" in2="effect1_dropShadow_33222_339860" result="shape"/>
</filter>
<filter id="filter6_f_33222_339860" x="242.522" y="36.8867" width="10.0074" height="5.76793" filterUnits="userSpaceOnUse" color-interpolation-filters="sRGB">
<feFlood flood-opacity="0" result="BackgroundImageFix"/>
<feBlend mode="normal" in="SourceGraphic" in2="BackgroundImageFix" result="shape"/>
<feGaussianBlur stdDeviation="0.227444" result="effect1_foregroundBlur_33222_339860"/>
</filter>
<radialGradient id="paint0_radial_33222_339860" cx="0" cy="0" r="1" gradientUnits="userSpaceOnUse" gradientTransform="translate(213.278 68.9149) rotate(90.6187) scale(72.0893 397.857)">
<stop offset="0.124566" stop-color="#CBDEFF"/>
<stop offset="0.293125" stop-color="#C9DEFF" stop-opacity="0.47"/>
<stop offset="0.659421" stop-color="#CFE2FF" stop-opacity="0"/>
</radialGradient>
<linearGradient id="paint1_linear_33222_339860" x1="177.152" y1="25.7693" x2="177.152" y2="63.5599" gradientUnits="userSpaceOnUse">
<stop stop-color="#B7E1FF"/>
<stop offset="1" stop-color="#86B4FF"/>
</linearGradient>
<linearGradient id="paint2_linear_33222_339860" x1="207.635" y1="52.5375" x2="203.015" y2="52.7395" gradientUnits="userSpaceOnUse">
<stop stop-color="#8DB9FF"/>
<stop offset="1" stop-color="#5688EB"/>
</linearGradient>
<linearGradient id="paint3_linear_33222_339860" x1="234.923" y1="19.9099" x2="234.923" y2="63.5791" gradientUnits="userSpaceOnUse">
<stop stop-color="#B7E1FF"/>
<stop offset="1" stop-color="#86B4FF"/>
</linearGradient>
<linearGradient id="paint4_linear_33222_339860" x1="189.255" y1="51.2252" x2="183.789" y2="51.2252" gradientUnits="userSpaceOnUse">
<stop stop-color="#2456B9"/>
<stop offset="1" stop-color="#80A5F5"/>
</linearGradient>
<linearGradient id="paint5_linear_33222_339860" x1="244.393" y1="63.4461" x2="244.397" y2="69.7466" gradientUnits="userSpaceOnUse">
<stop offset="0.322917" stop-color="#3165CC"/>
<stop offset="0.815688" stop-color="#6593F7"/>
</linearGradient>
<linearGradient id="paint6_linear_33222_339860" x1="172.995" y1="58.3115" x2="172.995" y2="79.7286" gradientUnits="userSpaceOnUse">
<stop stop-color="#1D56C5"/>
<stop offset="1" stop-color="#5D85DB"/>
</linearGradient>
<linearGradient id="paint7_linear_33222_339860" x1="212.885" y1="58.3115" x2="212.885" y2="79.7286" gradientUnits="userSpaceOnUse">
<stop stop-color="#1D56C5"/>
<stop offset="1" stop-color="#5D85DB"/>
</linearGradient>
<linearGradient id="paint8_linear_33222_339860" x1="252.774" y1="58.3115" x2="252.774" y2="79.7286" gradientUnits="userSpaceOnUse">
<stop stop-color="#1D56C5"/>
<stop offset="1" stop-color="#5D85DB"/>
</linearGradient>
<linearGradient id="paint9_linear_33222_339860" x1="182.656" y1="71.7481" x2="164.602" y2="67.7968" gradientUnits="userSpaceOnUse">
<stop stop-color="#8DB9FF"/>
<stop offset="1" stop-color="#5688EB"/>
</linearGradient>
<linearGradient id="paint10_linear_33222_339860" x1="262.438" y1="71.7481" x2="244.383" y2="67.7968" gradientUnits="userSpaceOnUse">
<stop stop-color="#8DB9FF"/>
<stop offset="1" stop-color="#5688EB"/>
</linearGradient>
<linearGradient id="paint11_linear_33222_339860" x1="222.548" y1="71.7481" x2="204.494" y2="67.7968" gradientUnits="userSpaceOnUse">
<stop stop-color="#8DB9FF"/>
<stop offset="1" stop-color="#5688EB"/>
</linearGradient>
<linearGradient id="paint12_linear_33222_339860" x1="250.872" y1="40.6283" x2="249.793" y2="56.4725" gradientUnits="userSpaceOnUse">
<stop stop-color="#9BC7FF"/>
<stop offset="0.851371" stop-color="#5688EB"/>
</linearGradient>
<linearGradient id="paint13_linear_33222_339860" x1="250.569" y1="36.4572" x2="249.762" y2="42.3524" gradientUnits="userSpaceOnUse">
<stop offset="0.128888" stop-color="#EEF7FF"/>
<stop offset="1" stop-color="#A4D2FF"/>
</linearGradient>
<linearGradient id="paint14_linear_33222_339860" x1="257.986" y1="23.0942" x2="258.203" y2="39.2847" gradientUnits="userSpaceOnUse">
<stop stop-color="#80B1FF"/>
<stop offset="1" stop-color="#5688EB"/>
</linearGradient>
</defs>
</svg>
