<svg width="425" height="141" viewBox="0 0 425 141" fill="none" xmlns="http://www.w3.org/2000/svg">
<path d="M425 141H0C0 98.4741 95.1395 64 212.5 64C329.861 64 425 98.4741 425 141Z" fill="url(#paint0_radial_33222_339277)"/>
<ellipse cx="211" cy="84.5" rx="94" ry="17.5" fill="#DEEAFF"/>
<ellipse rx="26.5" ry="2" transform="matrix(1 0 0 -1 215.5 80)" fill="#CBDEFF"/>
<rect x="259.5" y="76.4287" width="1.42857" height="3.57143" fill="#3B4F8C"/>
<path d="M257 75.7143L260.214 65V78.5714L257 75.7143Z" fill="#A1C0F9"/>
<path d="M260.215 78.5714V65L264.143 75.3571L260.215 78.5714Z" fill="#6993E7"/>
<rect x="280.668" y="82.1904" width="1.52381" height="3.80952" fill="#3B4F8C"/>
<path d="M278 81.4286L281.429 70V84.4762L278 81.4286Z" fill="#A1C0F9"/>
<path d="M281.428 84.4762V70L285.618 81.0476L281.428 84.4762Z" fill="#6993E7"/>
<rect x="150.5" y="77" width="2" height="5" fill="#3B4F8C"/>
<path d="M147 76L151.5 61V80L147 76Z" fill="#A1C0F9"/>
<path d="M151.5 80V61L157 75.5L151.5 80Z" fill="#6993E7"/>
<path fill-rule="evenodd" clip-rule="evenodd" d="M187 5C187 3.89543 187.895 3 189 3H241C242.105 3 243 3.89543 243 5V21C243 22.1046 242.105 23 241 23H189C187.895 23 187 22.1046 187 21V5ZM187 29C187 27.8954 187.895 27 189 27H241C242.105 27 243 27.8954 243 29V45C243 46.1046 242.105 47 241 47H189C187.895 47 187 46.1046 187 45V29ZM189 51C187.895 51 187 51.8954 187 53V69C187 70.1046 187.895 71 189 71H241C242.105 71 243 70.1046 243 69V53C243 51.8954 242.105 51 241 51H189Z" fill="url(#paint1_linear_33222_339277)"/>
<path fill-rule="evenodd" clip-rule="evenodd" d="M187 5C187 3.89543 187.895 3 189 3H241C242.105 3 243 3.89543 243 5V21C243 22.1046 242.105 23 241 23H189C187.895 23 187 22.1046 187 21V5ZM187 29C187 27.8954 187.895 27 189 27H241C242.105 27 243 27.8954 243 29V45C243 46.1046 242.105 47 241 47H189C187.895 47 187 46.1046 187 45V29ZM189 51C187.895 51 187 51.8954 187 53V69C187 70.1046 187.895 71 189 71H241C242.105 71 243 70.1046 243 69V53C243 51.8954 242.105 51 241 51H189Z" fill="url(#paint2_linear_33222_339277)"/>
<rect x="188" y="2" width="56" height="20" rx="2" fill="url(#paint3_linear_33222_339277)"/>
<rect x="188" y="2" width="56" height="20" rx="2" fill="url(#paint4_linear_33222_339277)"/>
<rect x="191" y="5" width="14" height="14" rx="2" fill="url(#paint5_linear_33222_339277)"/>
<rect x="188" y="26" width="56" height="20" rx="2" fill="url(#paint6_linear_33222_339277)"/>
<rect x="188" y="26" width="56" height="20" rx="2" fill="url(#paint7_linear_33222_339277)"/>
<rect x="191" y="29" width="14" height="14" rx="2" fill="url(#paint8_linear_33222_339277)"/>
<rect x="188" y="50" width="56" height="20" rx="2" fill="url(#paint9_linear_33222_339277)"/>
<rect x="188" y="50" width="56" height="20" rx="2" fill="url(#paint10_linear_33222_339277)"/>
<rect x="191" y="53" width="14" height="14" rx="2" fill="url(#paint11_linear_33222_339277)"/>
<path fill-rule="evenodd" clip-rule="evenodd" d="M171.5 12C170.395 12 169.5 12.8954 169.5 14V61.5C169.5 62.6046 170.395 63.5 171.5 63.5H180.5C181.605 63.5 182.5 62.6046 182.5 61.5C182.5 60.3954 181.605 59.5 180.5 59.5H173.5V39.5H181C182.105 39.5 183 38.6046 183 37.5C183 36.3954 182.105 35.5 181 35.5H173.5V16H180.5C181.605 16 182.5 15.1046 182.5 14C182.5 12.8954 181.605 12 180.5 12H171.5Z" fill="url(#paint12_linear_33222_339277)"/>
<path fill-rule="evenodd" clip-rule="evenodd" d="M171.5 12C170.395 12 169.5 12.8954 169.5 14V61.5C169.5 62.6046 170.395 63.5 171.5 63.5H180.5C181.605 63.5 182.5 62.6046 182.5 61.5C182.5 60.3954 181.605 59.5 180.5 59.5H173.5V39.5H181C182.105 39.5 183 38.6046 183 37.5C183 36.3954 182.105 35.5 181 35.5H173.5V16H180.5C181.605 16 182.5 15.1046 182.5 14C182.5 12.8954 181.605 12 180.5 12H171.5Z" fill="url(#paint13_linear_33222_339277)"/>
<path fill-rule="evenodd" clip-rule="evenodd" d="M172.5 11C171.395 11 170.5 11.8954 170.5 13V60.5C170.5 61.6046 171.395 62.5 172.5 62.5H181.5C182.605 62.5 183.5 61.6046 183.5 60.5C183.5 59.3954 182.605 58.5 181.5 58.5H174.5V38.5H182C183.105 38.5 184 37.6046 184 36.5C184 35.3954 183.105 34.5 182 34.5H174.5V15H181.5C182.605 15 183.5 14.1046 183.5 13C183.5 11.8954 182.605 11 181.5 11H172.5Z" fill="url(#paint14_linear_33222_339277)"/>
<defs>
<radialGradient id="paint0_radial_33222_339277" cx="0" cy="0" r="1" gradientUnits="userSpaceOnUse" gradientTransform="translate(213.278 68.9149) rotate(90.6187) scale(72.0893 397.857)">
<stop offset="0.124566" stop-color="#CBDEFF"/>
<stop offset="0.293125" stop-color="#C9DEFF" stop-opacity="0.47"/>
<stop offset="0.659421" stop-color="#CFE2FF" stop-opacity="0"/>
</radialGradient>
<linearGradient id="paint1_linear_33222_339277" x1="196.749" y1="3" x2="196.749" y2="71" gradientUnits="userSpaceOnUse">
<stop stop-color="#B7D4FF"/>
<stop offset="1" stop-color="#7CA4FF"/>
</linearGradient>
<linearGradient id="paint2_linear_33222_339277" x1="193.22" y1="-33.2177" x2="153.623" y2="-19.9468" gradientUnits="userSpaceOnUse">
<stop offset="0.0435924" stop-color="#CDDCFF"/>
<stop offset="1" stop-color="#ECF2FF"/>
</linearGradient>
<linearGradient id="paint3_linear_33222_339277" x1="215.298" y1="2" x2="215.298" y2="22" gradientUnits="userSpaceOnUse">
<stop stop-color="#B7D4FF"/>
<stop offset="1" stop-color="#7CA4FF"/>
</linearGradient>
<linearGradient id="paint4_linear_33222_339277" x1="216" y1="2" x2="216" y2="22" gradientUnits="userSpaceOnUse">
<stop stop-color="#AEC7FF"/>
<stop offset="1" stop-color="#487FFF"/>
</linearGradient>
<linearGradient id="paint5_linear_33222_339277" x1="197.824" y1="5" x2="197.824" y2="19" gradientUnits="userSpaceOnUse">
<stop stop-color="#B7E1FF"/>
<stop offset="1" stop-color="#86D3FF"/>
</linearGradient>
<linearGradient id="paint6_linear_33222_339277" x1="215.298" y1="26" x2="215.298" y2="46" gradientUnits="userSpaceOnUse">
<stop stop-color="#B7D4FF"/>
<stop offset="1" stop-color="#7CA4FF"/>
</linearGradient>
<linearGradient id="paint7_linear_33222_339277" x1="216" y1="26" x2="216" y2="46" gradientUnits="userSpaceOnUse">
<stop stop-color="#AEC7FF"/>
<stop offset="1" stop-color="#487FFF"/>
</linearGradient>
<linearGradient id="paint8_linear_33222_339277" x1="197.824" y1="29" x2="197.824" y2="43" gradientUnits="userSpaceOnUse">
<stop stop-color="#B7E1FF"/>
<stop offset="1" stop-color="#86D3FF"/>
</linearGradient>
<linearGradient id="paint9_linear_33222_339277" x1="215.298" y1="50" x2="215.298" y2="70" gradientUnits="userSpaceOnUse">
<stop stop-color="#B7D4FF"/>
<stop offset="1" stop-color="#7CA4FF"/>
</linearGradient>
<linearGradient id="paint10_linear_33222_339277" x1="216" y1="50" x2="216" y2="70" gradientUnits="userSpaceOnUse">
<stop stop-color="#AEC7FF"/>
<stop offset="1" stop-color="#487FFF"/>
</linearGradient>
<linearGradient id="paint11_linear_33222_339277" x1="197.824" y1="53" x2="197.824" y2="67" gradientUnits="userSpaceOnUse">
<stop stop-color="#B7E1FF"/>
<stop offset="1" stop-color="#86D3FF"/>
</linearGradient>
<linearGradient id="paint12_linear_33222_339277" x1="171.502" y1="12" x2="171.502" y2="63.5" gradientUnits="userSpaceOnUse">
<stop stop-color="#B7D4FF"/>
<stop offset="1" stop-color="#7CA4FF"/>
</linearGradient>
<linearGradient id="paint13_linear_33222_339277" x1="170.777" y1="-15.4296" x2="161.807" y2="-14.6144" gradientUnits="userSpaceOnUse">
<stop offset="0.0435924" stop-color="#CDDCFF"/>
<stop offset="1" stop-color="#ECF2FF"/>
</linearGradient>
<linearGradient id="paint14_linear_33222_339277" x1="176.25" y1="11" x2="176.25" y2="62.5" gradientUnits="userSpaceOnUse">
<stop stop-color="#AEC7FF"/>
<stop offset="1" stop-color="#487FFF"/>
</linearGradient>
</defs>
</svg>
