<svg width="70" height="97" viewBox="0 0 70 97" fill="none" xmlns="http://www.w3.org/2000/svg">
<g filter="url(#filter0_f_33222_339671)">
<ellipse rx="11" ry="1.5" transform="matrix(1 0 0 -1 36 75.5)" fill="#CBDEFF"/>
</g>
<g filter="url(#filter1_d_33222_339671)">
<path fill-rule="evenodd" clip-rule="evenodd" d="M25.3311 26.0252H46.1842V16.3473C46.1842 9.97535 41.516 4.80983 35.7576 4.80983C29.9992 4.80983 25.3311 9.97535 25.3311 16.3473V26.0252ZM20.9844 26.0252H18C15.2386 26.0252 13 28.2638 13 31.0252V58.0005C13 60.7619 15.2386 63.0005 18 63.0005H53.8838C56.6452 63.0005 58.8838 60.7619 58.8838 58.0005V31.0252C58.8838 28.2638 56.6452 26.0252 53.8838 26.0252H50.5308V16.3473C50.5308 7.31895 43.9166 0 35.7576 0C27.5986 0 20.9844 7.31895 20.9844 16.3473V26.0252Z" fill="url(#paint0_linear_33222_339671)"/>
</g>
<g filter="url(#filter2_i_33222_339671)">
<path fill-rule="evenodd" clip-rule="evenodd" d="M37.7554 43.0425C39.6165 42.3848 40.9498 40.61 40.9498 38.5237C40.9498 35.8776 38.8047 33.7324 36.1585 33.7324C33.5123 33.7324 31.3672 35.8776 31.3672 38.5237C31.3672 40.6098 32.7004 42.3846 34.5612 43.0424V54.293C34.5612 54.8453 35.009 55.293 35.5612 55.293H36.7554C37.3077 55.293 37.7554 54.8453 37.7554 54.293V43.0425Z" fill="#D9D9D9"/>
<path fill-rule="evenodd" clip-rule="evenodd" d="M37.7554 43.0425C39.6165 42.3848 40.9498 40.61 40.9498 38.5237C40.9498 35.8776 38.8047 33.7324 36.1585 33.7324C33.5123 33.7324 31.3672 35.8776 31.3672 38.5237C31.3672 40.6098 32.7004 42.3846 34.5612 43.0424V54.293C34.5612 54.8453 35.009 55.293 35.5612 55.293H36.7554C37.3077 55.293 37.7554 54.8453 37.7554 54.293V43.0425Z" fill="#2557BA"/>
</g>
<defs>
<filter id="filter0_f_33222_339671" x="20" y="69" width="32" height="13" filterUnits="userSpaceOnUse" color-interpolation-filters="sRGB">
<feFlood flood-opacity="0" result="BackgroundImageFix"/>
<feBlend mode="normal" in="SourceGraphic" in2="BackgroundImageFix" result="shape"/>
<feGaussianBlur stdDeviation="2.5" result="effect1_foregroundBlur_33222_339671"/>
</filter>
<filter id="filter1_d_33222_339671" x="11" y="0" width="47.8838" height="65.0005" filterUnits="userSpaceOnUse" color-interpolation-filters="sRGB">
<feFlood flood-opacity="0" result="BackgroundImageFix"/>
<feColorMatrix in="SourceAlpha" type="matrix" values="0 0 0 0 0 0 0 0 0 0 0 0 0 0 0 0 0 0 127 0" result="hardAlpha"/>
<feOffset dx="-2" dy="2"/>
<feComposite in2="hardAlpha" operator="out"/>
<feColorMatrix type="matrix" values="0 0 0 0 0.827451 0 0 0 0 0.882353 0 0 0 0 1 0 0 0 1 0"/>
<feBlend mode="normal" in2="BackgroundImageFix" result="effect1_dropShadow_33222_339671"/>
<feBlend mode="normal" in="SourceGraphic" in2="effect1_dropShadow_33222_339671" result="shape"/>
</filter>
<filter id="filter2_i_33222_339671" x="31.3672" y="33.7324" width="9.58301" height="21.5605" filterUnits="userSpaceOnUse" color-interpolation-filters="sRGB">
<feFlood flood-opacity="0" result="BackgroundImageFix"/>
<feBlend mode="normal" in="SourceGraphic" in2="BackgroundImageFix" result="shape"/>
<feColorMatrix in="SourceAlpha" type="matrix" values="0 0 0 0 0 0 0 0 0 0 0 0 0 0 0 0 0 0 127 0" result="hardAlpha"/>
<feOffset dx="-0.5" dy="0.5"/>
<feComposite in2="hardAlpha" operator="arithmetic" k2="-1" k3="1"/>
<feColorMatrix type="matrix" values="0 0 0 0 0.686275 0 0 0 0 0.784314 0 0 0 0 1 0 0 0 1 0"/>
<feBlend mode="normal" in2="shape" result="effect1_innerShadow_33222_339671"/>
</filter>
<linearGradient id="paint0_linear_33222_339671" x1="27.1403" y1="70.7848" x2="56.2999" y2="30.2038" gradientUnits="userSpaceOnUse">
<stop stop-color="#487EFF"/>
<stop offset="1" stop-color="#AEC7FF"/>
</linearGradient>
</defs>
</svg>
