<svg width="70" height="81" viewBox="0 0 70 81" fill="none" xmlns="http://www.w3.org/2000/svg">
<g filter="url(#filter0_f_33222_339642)">
<ellipse rx="11" ry="1.5" transform="matrix(1 0 0 -1 36 59.5)" fill="#CBDEFF"/>
</g>
<path d="M18.1327 7.04942L18.0003 6.06106L18.1327 7.04942ZM33.4697 41.6391L33.3374 40.6507L34.3257 40.5184L34.4581 41.5067L33.4697 41.6391ZM36.0451 48.5051L35.3056 47.8361L36.0451 48.5051ZM43.4683 40.3002L42.7289 39.6312L42.974 39.3603L43.336 39.3118L43.4683 40.3002ZM49.2219 39.5297L49.3542 40.5181L49.2219 39.5297ZM44.4014 3.5318L44.5338 4.52016L44.4014 3.5318ZM1.5556 27.5909C0.151375 17.1045 7.51393 7.46528 18.0003 6.06106L18.265 8.03778C8.87035 9.29581 2.27428 17.9316 3.53231 27.3262L1.5556 27.5909ZM23.0855 44.0357C12.5991 45.4399 2.95982 38.0773 1.5556 27.5909L3.53231 27.3262C4.79035 36.7209 13.4261 43.317 22.8208 42.059L23.0855 44.0357ZM33.6021 42.6274L23.0855 44.0357L22.8208 42.059L33.3374 40.6507L33.6021 42.6274ZM34.4581 41.5067L35.3056 47.8361L33.3289 48.1008L32.4814 41.7714L34.4581 41.5067ZM35.3056 47.8361L36.7846 49.1741C35.6454 50.4332 33.5543 49.7837 33.3289 48.1008L35.3056 47.8361ZM35.3056 47.8361L42.7289 39.6312L44.2078 40.9692L36.7846 49.1741L35.3056 47.8361ZM49.3542 40.5181L43.6007 41.2885L43.336 39.3118L49.0895 38.5414L49.3542 40.5181ZM65.799 18.9882C67.2032 29.4746 59.8406 39.1139 49.3542 40.5181L49.0895 38.5414C58.4842 37.2833 65.0803 28.6476 63.8223 19.2529L65.799 18.9882ZM44.2691 2.54344C54.7555 1.13922 64.3947 8.50179 65.799 18.9882L63.8223 19.2529C62.5642 9.8582 53.9285 3.26213 44.5338 4.52016L44.2691 2.54344ZM18.0003 6.06106L44.2691 2.54344L44.5338 4.52016L18.265 8.03778L18.0003 6.06106Z" fill="url(#paint0_linear_33222_339642)"/>
<path fill-rule="evenodd" clip-rule="evenodd" d="M18.2845 6.02193C8.18619 7.37419 1.09609 16.6567 2.44835 26.7551C3.8006 36.8534 13.0832 43.9435 23.1815 42.5912L33.9827 41.1449L34.8488 47.6129C34.9615 48.4544 36.0071 48.7792 36.5767 48.1496L44.1453 39.784L49.8672 39.0178C59.9655 37.6655 67.0556 28.383 65.7034 18.2847C64.3511 8.18631 55.0685 1.09622 44.9702 2.44848L18.2845 6.02193Z" fill="url(#paint1_linear_33222_339642)"/>
<g filter="url(#filter1_d_33222_339642)">
<circle cx="18.2153" cy="24.2754" r="4.25464" transform="rotate(-7.62704 18.2153 24.2754)" fill="#F1FCFF"/>
<circle cx="34.0288" cy="22.1577" r="4.25464" transform="rotate(-7.62704 34.0288 22.1577)" fill="#F1FCFF"/>
<circle cx="49.8432" cy="20.0402" r="4.25464" transform="rotate(-7.62704 49.8432 20.0402)" fill="#F1FCFF"/>
</g>
<defs>
<filter id="filter0_f_33222_339642" x="20" y="53" width="32" height="13" filterUnits="userSpaceOnUse" color-interpolation-filters="sRGB">
<feFlood flood-opacity="0" result="BackgroundImageFix"/>
<feBlend mode="normal" in="SourceGraphic" in2="BackgroundImageFix" result="shape"/>
<feGaussianBlur stdDeviation="2.5" result="effect1_foregroundBlur_33222_339642"/>
</filter>
<filter id="filter1_d_33222_339642" x="13.4336" y="15.2585" width="41.1904" height="14.3304" filterUnits="userSpaceOnUse" color-interpolation-filters="sRGB">
<feFlood flood-opacity="0" result="BackgroundImageFix"/>
<feColorMatrix in="SourceAlpha" type="matrix" values="0 0 0 0 0 0 0 0 0 0 0 0 0 0 0 0 0 0 127 0" result="hardAlpha"/>
<feOffset dy="0.53183"/>
<feComposite in2="hardAlpha" operator="out"/>
<feColorMatrix type="matrix" values="0 0 0 0 0 0 0 0 0 0 0 0 0 0 0 0 0 0 0.15 0"/>
<feBlend mode="normal" in2="BackgroundImageFix" result="effect1_dropShadow_33222_339642"/>
<feBlend mode="normal" in="SourceGraphic" in2="effect1_dropShadow_33222_339642" result="shape"/>
</filter>
<linearGradient id="paint0_linear_33222_339642" x1="37.9235" y1="-12.6192" x2="76.3544" y2="44.4323" gradientUnits="userSpaceOnUse">
<stop offset="0.0435924" stop-color="#CDDCFF"/>
<stop offset="1" stop-color="#ECF2FF"/>
</linearGradient>
<linearGradient id="paint1_linear_33222_339642" x1="66.696" y1="25.6975" x2="18.0776" y2="65.8189" gradientUnits="userSpaceOnUse">
<stop stop-color="#96B5FF"/>
<stop offset="1" stop-color="#BED2FF"/>
</linearGradient>
</defs>
</svg>
