<svg width="425" height="142" viewBox="0 0 425 142" fill="none" xmlns="http://www.w3.org/2000/svg">
<path d="M425 142H0C0 99.4741 95.1395 65 212.5 65C329.861 65 425 99.4741 425 142Z" fill="url(#paint0_radial_33222_339423)"/>
<ellipse cx="213" cy="85.5" rx="94" ry="17.5" fill="#DEEAFF"/>
<ellipse rx="11" ry="2" transform="matrix(1 0 0 -1 213 71)" fill="#CBDEFF"/>
<path d="M280.983 65.7107C280.885 64.9205 280.12 64.4081 279.346 64.595C278.792 64.7288 278.38 65.1927 278.32 65.7596C278.161 67.2648 277.861 70.3599 277.733 73.4621C277.605 76.5267 277.485 79.4245 277.426 80.8559C277.402 81.428 277.704 81.9625 278.205 82.2395C279.095 82.7317 280.202 82.2227 280.384 81.2221C280.765 79.131 281.305 75.8131 281.409 73.2809C281.52 70.6212 281.206 67.5005 280.983 65.7107Z" fill="#A1C0F9"/>
<path d="M285.04 69.6773C285.067 69.1851 284.666 68.7892 284.173 68.797C283.718 68.8042 283.341 69.1546 283.29 69.607C283.165 70.7141 282.886 72.73 282.407 74.0547C281.893 75.476 280.387 76.15 279.653 76.401C279.407 76.4853 279.212 76.6891 279.165 76.9453C279.084 77.3825 279.453 77.7515 279.878 77.6198C280.672 77.3736 281.896 76.868 283.089 75.8744C284.582 74.6304 284.95 71.2895 285.04 69.6773Z" fill="#A1C0F9"/>
<path d="M274.251 67.038C274.244 66.6287 274.59 66.3131 274.999 66.3354C275.376 66.3561 275.677 66.6589 275.705 67.0359C275.774 67.9586 275.94 69.6402 276.295 70.7547C276.676 71.9506 277.904 72.5583 278.504 72.7902C278.706 72.8681 278.861 73.0435 278.892 73.2575C278.945 73.623 278.627 73.9172 278.279 73.7942C277.628 73.5644 276.628 73.1055 275.671 72.2427C274.471 71.1624 274.274 68.3785 274.251 67.038Z" fill="#A1C0F9"/>
<path fill-rule="evenodd" clip-rule="evenodd" d="M274.797 66.3595C274.772 67.4532 274.872 69.6765 275.472 70.8734C276.072 72.0709 277.085 72.7178 278.316 73.2178C278.326 73.2479 278.334 73.279 278.339 73.311C278.392 73.6813 278.061 73.9689 277.72 73.8163C277.152 73.5624 276.329 73.0913 275.531 72.263C274.453 71.1443 274.239 68.2894 274.199 66.9796C274.188 66.6364 274.462 66.3665 274.797 66.3595Z" fill="#6993E7"/>
<path fill-rule="evenodd" clip-rule="evenodd" d="M284.038 68.8083C283.958 70.4523 283.65 73.5843 282.964 74.4958C282.246 75.4484 281.073 76.1816 280.575 76.4291L280.664 75.948C281.342 75.5654 282.076 74.9624 282.404 74.0541C282.883 72.7294 283.162 70.7135 283.287 69.6064C283.333 69.1985 283.644 68.8735 284.038 68.8083Z" fill="#6993E7"/>
<path fill-rule="evenodd" clip-rule="evenodd" d="M278.873 82.4282C278.511 77.6218 279.259 68.899 279.745 64.5588C279.614 64.5513 279.48 64.5626 279.346 64.5951C278.792 64.7288 278.38 65.1928 278.32 65.7596C278.16 67.2649 277.86 70.36 277.732 73.4622L277.425 80.856C277.402 81.4281 277.703 81.9625 278.204 82.2396C278.42 82.3587 278.648 82.4192 278.873 82.4282Z" fill="#6993E7"/>
<path d="M264.545 60.766C264.761 60.0827 265.521 59.7538 266.176 60.0453C266.645 60.2539 266.934 60.7316 266.894 61.2431C266.79 62.6013 266.551 65.3894 266.16 68.156C265.773 70.889 265.407 73.4732 265.227 74.7497C265.155 75.26 264.801 75.6839 264.312 75.8474C263.444 76.138 262.548 75.5073 262.549 74.592C262.552 72.6792 262.616 69.6549 262.935 67.3967C263.271 65.0247 264.057 62.3139 264.545 60.766Z" fill="#A1C0F9"/>
<path d="M260.259 61.3506C260.252 60.907 260.628 60.566 261.071 60.5913C261.48 60.6147 261.805 60.9437 261.835 61.3524C261.906 62.3526 262.082 64.1755 262.463 65.3844C262.872 66.6814 264.202 67.3434 264.852 67.5964C265.071 67.6814 265.238 67.8719 265.271 68.104C265.327 68.5001 264.982 68.8181 264.605 68.6839C263.9 68.433 262.818 67.9329 261.782 66.9952C260.486 65.8211 260.28 62.8035 260.259 61.3506Z" fill="#A1C0F9"/>
<path d="M269.644 65.8333C269.731 65.4669 269.483 65.1149 269.111 65.0542C268.768 64.9981 268.437 65.2107 268.337 65.544C268.093 66.3597 267.611 67.838 267.072 68.7696C266.494 69.7691 265.27 70.0724 264.684 70.162C264.487 70.1921 264.313 70.3191 264.243 70.5053C264.123 70.8233 264.351 71.1507 264.688 71.109C265.319 71.0311 266.308 70.8163 267.339 70.2303C268.63 69.4965 269.358 67.0336 269.644 65.8333Z" fill="#A1C0F9"/>
<path fill-rule="evenodd" clip-rule="evenodd" d="M269.288 65.1157C269.094 66.1036 268.565 68.0819 267.789 69.039C267.012 69.9967 265.974 70.3778 264.768 70.5836C264.753 70.6086 264.741 70.635 264.73 70.6627C264.609 70.985 264.849 71.3089 265.186 71.2392C265.747 71.1234 266.58 70.8627 267.461 70.2761C268.65 69.4838 269.407 66.9602 269.702 65.7912C269.78 65.485 269.587 65.1884 269.288 65.1157Z" fill="#6993E7"/>
<path fill-rule="evenodd" clip-rule="evenodd" d="M261.19 60.6065C261.201 62.0877 261.362 64.9151 261.945 65.7602C262.554 66.6434 263.583 67.3462 264.02 67.5873L263.959 67.1519C263.363 66.7827 262.725 66.2131 262.464 65.3839C262.083 64.175 261.907 62.3521 261.835 61.352C261.809 60.9836 261.542 60.68 261.19 60.6065Z" fill="#6993E7"/>
<path fill-rule="evenodd" clip-rule="evenodd" d="M263.688 75.9053C264.791 71.7104 265.55 63.8685 265.827 59.9479C265.944 59.9625 266.061 59.9944 266.175 60.0451C266.644 60.2538 266.933 60.7315 266.893 61.2429C266.789 62.6012 266.55 65.3893 266.159 68.1558L265.226 74.7496C265.154 75.2598 264.799 75.6837 264.311 75.8473C264.101 75.9177 263.889 75.934 263.688 75.9053Z" fill="#6993E7"/>
<path d="M151.925 56.9636C151.889 55.7697 152.905 54.834 154.095 54.9327C154.947 55.0033 155.665 55.5961 155.885 56.4226C156.468 58.6172 157.625 63.1362 158.53 67.7052C159.424 72.2188 160.27 76.4866 160.688 78.5948C160.855 79.4374 160.531 80.2992 159.852 80.8253C158.645 81.7599 156.888 81.2603 156.387 79.819C155.34 76.8071 153.777 72.0131 153.038 68.2836C152.262 64.3663 152.008 59.6679 151.925 56.9636Z" fill="#A1C0F9"/>
<path d="M147.764 63.5458C147.712 62.808 148.306 62.2059 149.045 62.2073C149.728 62.2086 150.3 62.7264 150.387 63.404C150.598 65.062 151.058 68.08 151.804 70.0571C152.604 72.1784 154.878 73.158 155.983 73.5193C156.355 73.6407 156.652 73.9423 156.728 74.3256C156.857 74.9798 156.311 75.5409 155.672 75.3522C154.476 74.9994 152.629 74.2665 150.819 72.8009C148.553 70.9659 147.933 65.9622 147.764 63.5458Z" fill="#A1C0F9"/>
<path d="M160.967 55.8329C160.733 55.1312 159.955 54.8008 159.272 55.0841C158.641 55.3457 158.31 56.0425 158.488 56.7018C158.925 58.3152 159.651 61.2806 159.715 63.3927C159.784 65.6589 158.056 67.4314 157.171 68.1869C156.874 68.4407 156.715 68.8328 156.791 69.2161C156.92 69.8704 157.639 70.1809 158.158 69.7625C159.129 68.9803 160.557 67.5986 161.672 65.5536C163.067 62.9932 161.732 58.131 160.967 55.8329Z" fill="#A1C0F9"/>
<path fill-rule="evenodd" clip-rule="evenodd" d="M159.628 55.0043C160.328 56.8525 161.491 60.7013 161.186 63.1011C160.882 65.502 159.545 67.2118 157.746 68.803C157.747 68.8602 157.753 68.9177 157.764 68.9749C157.895 69.638 158.631 69.9298 159.122 69.4647C159.937 68.6914 161.057 67.3946 161.92 65.5044C163.085 62.9515 161.736 57.9581 161.019 55.702C160.831 55.1108 160.203 54.8152 159.628 55.0043Z" fill="#6993E7"/>
<path fill-rule="evenodd" clip-rule="evenodd" d="M149.244 62.2227C149.399 64.6871 149.926 69.3785 150.975 70.7314C152.07 72.1454 153.846 73.2208 154.597 73.5817L154.455 72.8625C153.429 72.3029 152.316 71.4134 151.804 70.0574C151.058 68.0803 150.598 65.0623 150.387 63.4042C150.309 62.7936 149.837 62.3127 149.244 62.2227Z" fill="#6993E7"/>
<path fill-rule="evenodd" clip-rule="evenodd" d="M158.906 81.2588C158.334 74.0508 155.217 61.2926 153.497 54.9707C153.688 54.9298 153.889 54.9158 154.095 54.9329C154.947 55.0036 155.665 55.5964 155.884 56.4229C156.467 58.6175 157.624 63.1365 158.53 67.7054L160.687 78.5951C160.854 79.4377 160.53 80.2994 159.851 80.8256C159.56 81.0514 159.236 81.1935 158.906 81.2588Z" fill="#6993E7"/>
<path d="M191.173 52.1995L191.262 52.8699L191.173 52.1995ZM203.381 50.5648L203.291 49.8943L203.961 49.8046L204.051 50.475L203.381 50.5648ZM203.982 55.059L204.653 54.9692L203.982 55.059ZM205.154 55.423L204.653 54.9692L205.154 55.423ZM210.498 49.5163L209.997 49.0625L210.132 48.9131L210.327 48.862L210.498 49.5163ZM176.658 41.7153C175.706 34.6022 180.7 28.0638 187.813 27.1113L187.993 28.4521C181.62 29.3054 177.146 35.1632 177.999 41.5357L176.658 41.7153ZM191.262 52.8699C184.149 53.8224 177.611 48.8283 176.658 41.7153L177.999 41.5357C178.853 47.9082 184.71 52.3824 191.083 51.5291L191.262 52.8699ZM203.47 51.2352L191.262 52.8699L191.083 51.5291L203.291 49.8943L203.47 51.2352ZM204.051 50.475L204.653 54.9692L203.312 55.1487L202.71 50.6545L204.051 50.475ZM204.653 54.9692L205.656 55.8768C204.883 56.7308 203.465 56.2903 203.312 55.1487L204.653 54.9692ZM204.653 54.9692L209.997 49.0625L211 49.9701L205.656 55.8768L204.653 54.9692ZM220.235 35.8799C221.115 42.4505 216.921 48.5298 210.67 50.1705L210.327 48.862C215.926 47.3925 219.683 41.945 218.895 36.0594L220.235 35.8799ZM205.631 24.7252C212.745 23.7727 219.283 28.7668 220.235 35.8799L218.895 36.0594C218.041 29.6869 212.184 25.2127 205.811 26.066L205.631 24.7252ZM187.813 27.1113L205.631 24.7252L205.811 26.066L187.993 28.4521L187.813 27.1113Z" fill="url(#paint1_linear_33222_339423)"/>
<path fill-rule="evenodd" clip-rule="evenodd" d="M188.004 27.0848C181.154 28.002 176.345 34.2985 177.262 41.1483C178.18 47.9981 184.476 52.8074 191.326 51.8902L203.728 50.2295L204.342 54.8178C204.419 55.3885 205.128 55.6088 205.514 55.1818L210.958 49.1644C216.978 47.5847 221.016 41.7298 220.169 35.4027C219.252 28.5529 212.955 23.7436 206.106 24.6608L188.004 27.0848Z" fill="url(#paint2_linear_33222_339423)"/>
<g filter="url(#filter0_d_33222_339423)">
<circle cx="187.957" cy="39.4662" r="2.88598" transform="rotate(-7.62704 187.957 39.4662)" fill="#F1FCFF"/>
<circle cx="198.683" cy="38.0297" r="2.88598" transform="rotate(-7.62704 198.683 38.0297)" fill="#F1FCFF"/>
<circle cx="209.41" cy="36.5934" r="2.88598" transform="rotate(-7.62704 209.41 36.5934)" fill="#F1FCFF"/>
</g>
<g opacity="0.19" filter="url(#filter1_f_33222_339423)">
<path d="M195 27C198.5 33.5 202 36.5 219 39" stroke="#537FD8" stroke-width="2" stroke-linecap="round"/>
</g>
<path d="M224.562 38.7074L224.766 37.7924L225.681 37.9965L225.477 38.9115L224.562 38.7074ZM224.544 45.8752L224.109 45.0448L224.109 45.0448L224.544 45.8752ZM234.322 40.7501L233.887 39.9197L234.134 39.7902L234.411 39.8169L234.322 40.7501ZM194.037 14.4059C196.202 4.69767 205.828 -1.41681 215.536 0.74877L215.128 2.57879C206.43 0.638661 197.807 6.11658 195.867 14.8141L194.037 14.4059ZM207.694 35.9052C197.986 33.7396 191.871 24.114 194.037 14.4059L195.867 14.8141C193.927 23.5116 199.405 32.1351 208.102 34.0752L207.694 35.9052ZM224.358 39.6224L207.694 35.9052L208.102 34.0752L224.766 37.7924L224.358 39.6224ZM225.477 38.9115L224.109 45.0448L222.279 44.6366L223.647 38.5033L225.477 38.9115ZM224.109 45.0448L224.109 45.0448L224.979 46.7055C223.565 47.4466 221.931 46.1946 222.279 44.6366L224.109 45.0448ZM224.109 45.0448L233.887 39.9197L234.757 41.5804L224.979 46.7055L224.109 45.0448ZM253.512 27.673C251.512 36.6402 243.148 42.5404 234.232 41.6833L234.411 39.8169C242.398 40.5846 249.891 35.2972 251.682 27.2648L253.512 27.673ZM239.855 6.17362C249.564 8.33921 255.678 17.9648 253.512 27.673L251.682 27.2648C253.623 18.5673 248.145 9.94378 239.447 8.00365L239.855 6.17362ZM215.536 0.74877L239.855 6.17362L239.447 8.00365L215.128 2.57879L215.536 0.74877Z" fill="url(#paint3_linear_33222_339423)"/>
<path fill-rule="evenodd" clip-rule="evenodd" d="M215.959 0.819942C206.61 -1.2655 197.34 4.62271 195.255 13.9716C193.17 23.3205 199.058 32.5899 208.407 34.6754L225.334 38.4513L223.937 44.7138C223.763 45.4929 224.58 46.1188 225.287 45.7483L235.249 40.5266C243.835 41.3522 251.89 35.6696 253.816 27.0346C255.901 17.6857 250.013 8.41635 240.664 6.3309L215.959 0.819942Z" fill="url(#paint4_linear_33222_339423)"/>
<g filter="url(#filter2_d_33222_339423)">
<circle cx="209.971" cy="16.9014" r="4" transform="rotate(12.575 209.971 16.9014)" fill="#F1FCFF"/>
<circle cx="224.611" cy="20.1672" r="4" transform="rotate(12.575 224.611 20.1672)" fill="#F1FCFF"/>
<circle cx="239.251" cy="23.4329" r="4" transform="rotate(12.575 239.251 23.4329)" fill="#F1FCFF"/>
</g>
<defs>
<filter id="filter0_d_33222_339423" x="184.713" y="33.3499" width="27.9404" height="9.72061" filterUnits="userSpaceOnUse" color-interpolation-filters="sRGB">
<feFlood flood-opacity="0" result="BackgroundImageFix"/>
<feColorMatrix in="SourceAlpha" type="matrix" values="0 0 0 0 0 0 0 0 0 0 0 0 0 0 0 0 0 0 127 0" result="hardAlpha"/>
<feOffset dy="0.360747"/>
<feComposite in2="hardAlpha" operator="out"/>
<feColorMatrix type="matrix" values="0 0 0 0 0 0 0 0 0 0 0 0 0 0 0 0 0 0 0.15 0"/>
<feBlend mode="normal" in2="BackgroundImageFix" result="effect1_dropShadow_33222_339423"/>
<feBlend mode="normal" in="SourceGraphic" in2="effect1_dropShadow_33222_339423" result="shape"/>
</filter>
<filter id="filter1_f_33222_339423" x="193" y="24.9998" width="28" height="16.0005" filterUnits="userSpaceOnUse" color-interpolation-filters="sRGB">
<feFlood flood-opacity="0" result="BackgroundImageFix"/>
<feBlend mode="normal" in="SourceGraphic" in2="BackgroundImageFix" result="shape"/>
<feGaussianBlur stdDeviation="0.5" result="effect1_foregroundBlur_33222_339423"/>
</filter>
<filter id="filter2_d_33222_339423" x="205.196" y="12.1265" width="38.8301" height="16.5813" filterUnits="userSpaceOnUse" color-interpolation-filters="sRGB">
<feFlood flood-opacity="0" result="BackgroundImageFix"/>
<feColorMatrix in="SourceAlpha" type="matrix" values="0 0 0 0 0 0 0 0 0 0 0 0 0 0 0 0 0 0 127 0" result="hardAlpha"/>
<feOffset dy="0.5"/>
<feComposite in2="hardAlpha" operator="out"/>
<feColorMatrix type="matrix" values="0 0 0 0 0 0 0 0 0 0 0 0 0 0 0 0 0 0 0.15 0"/>
<feBlend mode="normal" in2="BackgroundImageFix" result="effect1_dropShadow_33222_339423"/>
<feBlend mode="normal" in="SourceGraphic" in2="effect1_dropShadow_33222_339423" result="shape"/>
</filter>
<radialGradient id="paint0_radial_33222_339423" cx="0" cy="0" r="1" gradientUnits="userSpaceOnUse" gradientTransform="translate(213.278 69.9149) rotate(90.6187) scale(72.0893 397.857)">
<stop offset="0.124566" stop-color="#CBDEFF"/>
<stop offset="0.293125" stop-color="#C9DEFF" stop-opacity="0.47"/>
<stop offset="0.659421" stop-color="#CFE2FF" stop-opacity="0"/>
</radialGradient>
<linearGradient id="paint1_linear_33222_339423" x1="201.327" y1="14.4403" x2="227.395" y2="53.1389" gradientUnits="userSpaceOnUse">
<stop offset="0.0435924" stop-color="#CDDCFF"/>
<stop offset="1" stop-color="#ECF2FF"/>
</linearGradient>
<linearGradient id="paint2_linear_33222_339423" x1="220.842" y1="40.4308" x2="187.864" y2="67.6458" gradientUnits="userSpaceOnUse">
<stop stop-color="#96B5FF"/>
<stop offset="1" stop-color="#BED2FF"/>
</linearGradient>
<linearGradient id="paint3_linear_33222_339423" x1="239.179" y1="-9.26456" x2="254.565" y2="53.5494" gradientUnits="userSpaceOnUse">
<stop offset="0.0435924" stop-color="#CDDCFF"/>
<stop offset="1" stop-color="#ECF2FF"/>
</linearGradient>
<linearGradient id="paint4_linear_33222_339423" x1="252.285" y1="33.8974" x2="196.362" y2="53.5124" gradientUnits="userSpaceOnUse">
<stop stop-color="#487FFF"/>
<stop offset="1" stop-color="#AEC7FF"/>
</linearGradient>
</defs>
</svg>
