<svg width="425" height="148" viewBox="0 0 425 148" fill="none" xmlns="http://www.w3.org/2000/svg">
<path d="M425 148H0C0 105.474 95.1395 71 212.5 71C329.861 71 425 105.474 425 148Z" fill="url(#paint0_radial_33222_339365)"/>
<ellipse cx="213" cy="91.5" rx="94" ry="17.5" fill="#DEEAFF"/>
<ellipse rx="11" ry="2" transform="matrix(1 0 0 -1 214 77)" fill="#CBDEFF"/>
<rect x="152.5" y="87.9998" width="2" height="5" fill="#3B4F8C"/>
<ellipse cx="153.25" cy="82.8" rx="4.25" ry="6.8" fill="#A1C0F9"/>
<path fill-rule="evenodd" clip-rule="evenodd" d="M153.25 89.6004C155.597 89.6004 157.5 86.5559 157.5 82.8004C157.5 80.3025 156.658 78.1192 155.403 76.937C156.234 79.4674 156.64 82.3991 155.8 84.5C154.7 87.2486 152.645 88.1029 150.736 88.2845C151.44 89.1118 152.309 89.6004 153.25 89.6004Z" fill="#6993E7"/>
<rect x="183.471" y="77.4707" width="1.41176" height="3.52941" fill="#3B4F8C"/>
<ellipse cx="184" cy="73.8" rx="3" ry="4.8" fill="#A1C0F9"/>
<path fill-rule="evenodd" clip-rule="evenodd" d="M183.999 78.6004C185.656 78.6004 186.999 76.4514 186.999 73.8004C186.999 72.0369 186.405 70.4955 185.519 69.6611C186.106 71.4474 186.392 73.517 185.799 75.0001C185.023 76.9402 183.573 77.5433 182.225 77.6715C182.722 78.2554 183.335 78.6004 183.999 78.6004Z" fill="#6993E7"/>
<rect x="276.5" y="85.9998" width="2" height="5" fill="#3B4F8C"/>
<ellipse cx="277.25" cy="80.8" rx="4.25" ry="6.8" fill="#A1C0F9"/>
<path fill-rule="evenodd" clip-rule="evenodd" d="M277.25 87.6004C279.597 87.6004 281.5 84.5559 281.5 80.8004C281.5 78.3025 280.658 76.1192 279.403 74.937C280.234 77.4674 280.64 80.3991 279.8 82.5C278.7 85.2486 276.645 86.1029 274.736 86.2845C275.44 87.1118 276.309 87.6004 277.25 87.6004Z" fill="#6993E7"/>
<path d="M190.354 30.7392L190.255 29.7441L190.223 29.7472L190.192 29.7524L190.354 30.7392ZM179.972 27.3854L180.698 26.6974L180.666 26.6637L180.631 26.6331L179.972 27.3854ZM180.09 28.431L180.55 29.3188H180.55L180.09 28.431ZM177.141 29.1943L177.338 30.1746H177.338L177.141 29.1943ZM176.017 29.4868L175.797 30.4623L175.798 30.4623L176.017 29.4868ZM188.793 30.8046L188.808 29.8047L188.801 29.8047L188.793 30.8046ZM189.056 30.8061L189.059 29.8061L189.052 29.8061L189.056 30.8061ZM202 16.2901C202 23.344 196.816 29.0913 190.255 29.7441L190.453 31.7343C198.085 30.975 204 24.3231 204 16.2901H202ZM189 2.77393C196.146 2.77393 202 8.79087 202 16.2901H204C204 7.75517 197.318 0.773926 189 0.773926V2.77393ZM176 16.2901C176 8.79087 181.854 2.77393 189 2.77393V0.773926C180.682 0.773926 174 7.75517 174 16.2901H176ZM180.631 26.6331C177.803 24.1567 176 20.4468 176 16.2901H174C174 21.0337 176.06 25.2886 179.314 28.1378L180.631 26.6331ZM180.55 29.3188C180.754 29.2131 181.006 29.0441 181.185 28.766C181.386 28.4518 181.429 28.1019 181.363 27.7855C181.305 27.508 181.172 27.2855 181.066 27.1352C180.954 26.9771 180.822 26.8285 180.698 26.6974L179.247 28.0735C179.346 28.1779 179.402 28.2457 179.431 28.2879C179.467 28.3377 179.427 28.2991 179.405 28.1921C179.392 28.1307 179.385 28.0459 179.401 27.9471C179.418 27.8464 179.455 27.7574 179.501 27.6856C179.586 27.554 179.673 27.5209 179.63 27.5432L180.55 29.3188ZM177.338 30.1746C177.841 30.0734 178.463 29.9484 179.028 29.8127C179.558 29.6856 180.158 29.5223 180.55 29.3188L179.63 27.5432C179.486 27.6178 179.119 27.7341 178.561 27.8681C178.039 27.9935 177.455 28.1111 176.944 28.2139L177.338 30.1746ZM176.237 28.5112C176.259 28.5161 176.383 28.5426 176.522 28.6286C176.653 28.7099 177.082 29.045 176.975 29.6452C176.901 30.0626 176.598 30.2609 176.578 30.275C176.502 30.329 176.438 30.3569 176.422 30.364C176.369 30.3868 176.361 30.3832 176.476 30.3554C176.661 30.311 176.957 30.2512 177.338 30.1746L176.944 28.2139C176.582 28.2866 176.238 28.3555 176.007 28.4111C175.915 28.4334 175.756 28.4727 175.623 28.5304C175.587 28.5462 175.508 28.5823 175.421 28.6439C175.39 28.6657 175.081 28.8711 175.006 29.2952C174.898 29.902 175.33 30.2432 175.47 30.33C175.618 30.4215 175.756 30.453 175.797 30.4623L176.237 28.5112ZM188.801 29.8047C183.156 29.7614 178.076 28.9256 176.237 28.5112L175.798 30.4623C177.761 30.9048 182.984 31.7602 188.785 31.8046L188.801 29.8047ZM189 29.8062C188.936 29.8062 188.872 29.8057 188.808 29.8047L188.778 31.8045C188.852 31.8056 188.926 31.8062 189 31.8062V29.8062ZM189.052 29.8061C189.035 29.8061 189.017 29.8062 189 29.8062V31.8062C189.02 31.8062 189.04 31.8061 189.06 31.8061L189.052 29.8061ZM189.254 29.8064C189.189 29.8064 189.124 29.8063 189.059 29.8061L189.052 31.8061C189.12 31.8063 189.187 31.8064 189.254 31.8064V29.8064ZM190.192 29.7524C190 29.7838 189.698 29.8064 189.254 29.8064V31.8064C189.748 31.8064 190.172 31.7824 190.516 31.726L190.192 29.7524Z" fill="url(#paint1_linear_33222_339365)"/>
<path fill-rule="evenodd" clip-rule="evenodd" d="M191.45 30.9309C199.054 30.2017 205 23.7952 205 16C205 7.71573 198.284 1 190 1C181.716 1 175 7.71573 175 16C175 20.5979 177.069 24.7126 180.326 27.4641C180.805 27.9515 180.983 28.2807 180.453 28.5457C179.789 28.8779 178.512 29.1312 177.439 29.3441C176.905 29.45 176.422 29.546 176.09 29.6366C178.126 30.0792 183.645 30.9529 189.776 30.9984C189.851 30.9995 189.925 31 190 31C190.021 31 190.041 31 190.062 30.9999C190.132 31.0001 190.202 31.0002 190.272 31.0002C190.774 31.0002 191.163 30.9761 191.45 30.9309Z" fill="url(#paint2_linear_33222_339365)"/>
<g filter="url(#filter0_d_33222_339365)">
<path d="M190.845 17.3815C190.845 17.6861 190.599 17.933 190.294 17.933H189.158C188.739 17.933 188.4 17.5935 188.4 17.1747C188.4 16.0441 188.546 15.3552 189.5 14.2794C190.454 13.2036 191.457 12.5811 191.457 11.4118C191.457 10.2424 190.76 9.66091 189.659 9.66091C188.707 9.66091 188.022 10.1047 187.71 10.9721C187.474 11.6267 186.955 12.2115 186.26 12.2115C185.564 12.2115 184.987 11.641 185.139 10.962C185.608 8.86095 187.241 7 189.696 7C192.435 7 194 8.54412 194 11.6323C194 13.397 192.554 14.3485 191.652 15.1618C190.751 15.975 190.87 16.7059 190.845 17.3815ZM190.87 20.7648C190.87 21.447 190.317 22 189.635 22C188.953 22 188.4 21.447 188.4 20.7648V20.3676C188.4 19.6854 188.953 19.1324 189.635 19.1324C190.317 19.1324 190.87 19.6854 190.87 20.3676V20.7648Z" fill="#F1FCFF"/>
</g>
<g opacity="0.3" filter="url(#filter1_f_33222_339365)">
<path d="M205 13C200.152 14.7647 192.879 18.8235 189 31" stroke="#537FD8" stroke-width="2" stroke-linecap="round"/>
</g>
<path d="M210.535 65.8738L210.637 64.879L210.67 64.8824L210.702 64.8878L210.535 65.8738ZM229.589 59.446L228.829 58.7956L228.869 58.7496L228.913 58.7087L229.589 59.446ZM229.231 61.5411L228.366 62.0439L228.366 62.0439L229.231 61.5411ZM233.642 63.2388L233.843 62.2593H233.843L233.642 63.2388ZM234.5 63.5L234.727 64.474L234.727 64.4741L234.5 63.5ZM213.353 65.997L213.338 64.997L213.345 64.997L213.353 65.997ZM212.932 65.9994L212.928 64.9994L212.934 64.9994L212.932 65.9994ZM188.501 38.7498C188.501 52.447 198.268 63.6111 210.637 64.879L210.433 66.8686C196.949 65.4864 186.501 53.3745 186.501 38.7498H188.501ZM213 12.5C199.531 12.5 188.501 24.1889 188.501 38.7498H186.501C186.501 23.2114 198.303 10.5 213 10.5V12.5ZM237.5 38.7498C237.5 24.1889 226.47 12.5 213 12.5V10.5C227.697 10.5 239.5 23.2114 239.5 38.7498H237.5ZM228.913 58.7087C234.161 53.9005 237.5 46.7501 237.5 38.7498H239.5C239.5 47.3106 235.926 54.9961 230.264 60.1833L228.913 58.7087ZM228.366 62.0439C228.035 61.4743 227.892 60.8717 228.03 60.2396C228.157 59.6588 228.497 59.1837 228.829 58.7956L230.348 60.0964C230.078 60.4118 230.003 60.5789 229.984 60.6671C229.976 60.7039 229.955 60.7971 230.095 61.0384L228.366 62.0439ZM233.441 64.2183C232.76 64.0785 231.736 63.8688 230.811 63.5731C230.349 63.4253 229.878 63.2455 229.47 63.0246C229.086 62.8167 228.636 62.5075 228.366 62.0439L230.095 61.0384C230.086 61.0237 230.146 61.1159 230.423 61.2663C230.677 61.4037 231.017 61.5391 231.42 61.6681C232.227 61.926 233.147 62.1161 233.843 62.2593L233.441 64.2183ZM234.274 62.526C234.257 62.53 234.21 62.5414 234.15 62.5661C234.107 62.5835 233.957 62.6469 233.815 62.7987C233.632 62.9942 233.474 63.3392 233.585 63.7389C233.669 64.0397 233.865 64.2004 233.919 64.243C233.994 64.3024 234.059 64.3349 234.082 64.3464C234.112 64.3607 234.133 64.3687 234.14 64.3713C234.153 64.3762 234.152 64.3748 234.125 64.3677C234.007 64.3354 233.785 64.2892 233.441 64.2183L233.843 62.2593C234.153 62.3229 234.456 62.3848 234.652 62.4383C234.704 62.4525 234.768 62.4712 234.832 62.4948C234.866 62.5074 235.016 62.5607 235.161 62.6753C235.225 62.7259 235.426 62.8943 235.512 63.2026C235.626 63.6096 235.465 63.9617 235.276 64.1641C235.128 64.3227 234.967 64.3925 234.91 64.4161C234.834 64.4471 234.768 64.4644 234.727 64.474L234.274 62.526ZM213.345 64.997C223.57 64.9166 230.845 63.3226 234.274 62.5259L234.727 64.4741C231.227 65.287 223.793 66.9149 213.361 66.9969L213.345 64.997ZM213 64.9995C213.113 64.9995 213.226 64.9987 213.338 64.9971L213.367 66.9969C213.245 66.9986 213.123 66.9995 213 66.9995V64.9995ZM212.934 64.9994C212.956 64.9995 212.978 64.9995 213 64.9995V66.9995C212.977 66.9995 212.953 66.9995 212.929 66.9994L212.934 64.9994ZM212.54 65.0002C212.67 65.0002 212.799 64.9999 212.928 64.9994L212.935 66.9994C212.804 66.9999 212.672 67.0002 212.54 67.0002V65.0002ZM210.702 64.8878C211.111 64.9571 211.71 65.0002 212.54 65.0002V67.0002C211.659 67.0002 210.935 66.9556 210.369 66.8598L210.702 64.8878Z" fill="url(#paint3_linear_33222_339365)"/>
<path fill-rule="evenodd" clip-rule="evenodd" d="M212.392 65.8733C198.704 64.537 188 52.7917 188 38.5C188 23.3122 200.088 11 215 11C229.912 11 242 23.3122 242 38.5C242 46.9359 238.271 54.4846 232.4 59.5291C231.545 60.416 231.232 61.0165 232.182 61.5C233.378 62.1091 235.676 62.5735 237.607 62.9638C238.568 63.158 239.438 63.3339 240.036 63.5C236.377 64.3103 226.467 65.9084 215.452 65.9962C215.302 65.9987 215.151 66 215 66C214.947 66 214.894 65.9998 214.841 65.9995C214.73 65.9998 214.62 66 214.509 66C213.607 66 212.908 65.956 212.392 65.8733Z" fill="url(#paint4_linear_33222_339365)"/>
<g filter="url(#filter2_d_33222_339365)">
<path d="M217.289 44.2235C217.289 44.9341 216.713 45.5102 216.002 45.5102H213.08C212.103 45.5102 211.311 44.7181 211.311 43.7409C211.311 41.103 211.668 39.4954 214 36.9853C216.332 34.4752 218.783 33.0226 218.783 30.2941C218.783 27.5656 217.08 26.2088 214.389 26.2088C212.11 26.2088 210.459 27.2011 209.673 29.1419C209.035 30.7184 207.78 32.1601 206.079 32.1601C204.378 32.1601 202.967 30.7627 203.371 29.1109C204.558 24.2635 208.534 20 214.479 20C221.175 20 225 23.6029 225 30.8088C225 34.9264 221.465 37.1465 219.261 39.0441C217.057 40.9417 217.348 42.647 217.289 44.2235ZM217.35 51.9806C217.35 53.6481 215.998 55 214.33 55C212.663 55 211.311 53.6481 211.311 51.9805V51.3283C211.311 49.6607 212.663 48.3088 214.33 48.3088C215.998 48.3088 217.35 49.6607 217.35 51.3283V51.9806Z" fill="#F1FCFF"/>
</g>
<path d="M268.546 54.7515V55.1633H266.644V54.5971C266.644 53.7529 266.758 53.2385 267.5 52.4353C268.242 51.6321 269.022 51.1672 269.022 50.2941C269.022 49.421 268.48 48.9868 267.624 48.9868C266.587 48.9868 265.96 49.6353 265.96 50.8912H264C264 48.9868 265.37 47 267.652 47C269.783 47 271 48.1529 271 50.4588C271 51.7765 269.875 52.4869 269.174 53.0941C268.473 53.7013 268.565 54.247 268.546 54.7515ZM268.566 58.2H266.644V56.0588H268.566V58.2Z" fill="#DEEAFF"/>
<path d="M171.196 47.8589V48.3295H169.022V47.6824C169.022 46.7177 169.152 46.1297 170 45.2118C170.848 44.2938 171.739 43.7625 171.739 42.7647C171.739 41.7669 171.12 41.2706 170.142 41.2706C168.957 41.2706 168.239 42.0118 168.239 43.4471H166C166 41.2706 167.565 39 170.174 39C172.609 39 174 40.3176 174 42.9529C174 44.4588 172.715 45.2707 171.913 45.9647C171.112 46.6587 171.217 47.2823 171.196 47.8589ZM171.218 51.8H169.022V49.3529H171.218V51.8Z" fill="#DEEAFF"/>
<path d="M253.166 31.3984V31.6851H251.842V31.2908C251.842 30.7029 251.921 30.3447 252.438 29.7853C252.954 29.2259 253.497 28.9022 253.497 28.2941C253.497 27.6861 253.12 27.3837 252.524 27.3837C251.802 27.3837 251.365 27.8353 251.365 28.71H250C250 27.3837 250.954 26 252.544 26C254.027 26 254.875 26.8029 254.875 28.4088C254.875 29.3265 254.092 29.8212 253.603 30.2441C253.115 30.667 253.179 31.0471 253.166 31.3984ZM253.18 33.8H251.842V32.3088H253.18V33.8Z" fill="#DEEAFF"/>
<path d="M152.342 56.8447V57.102H151.153V56.7482C151.153 56.2206 151.224 55.8991 151.688 55.3971C152.151 54.895 152.639 54.6045 152.639 54.0588C152.639 53.5131 152.3 53.2418 151.765 53.2418C151.117 53.2418 150.725 53.6471 150.725 54.432H149.5C149.5 53.2418 150.356 52 151.783 52C153.114 52 153.875 52.7206 153.875 54.1618C153.875 54.9853 153.172 55.4293 152.734 55.8088C152.295 56.1883 152.353 56.5294 152.342 56.8447ZM152.354 59H151.153V57.6618H152.354V59Z" fill="#DEEAFF"/>
<defs>
<filter id="filter0_d_33222_339365" x="185.114" y="7" width="8.88574" height="15.5" filterUnits="userSpaceOnUse" color-interpolation-filters="sRGB">
<feFlood flood-opacity="0" result="BackgroundImageFix"/>
<feColorMatrix in="SourceAlpha" type="matrix" values="0 0 0 0 0 0 0 0 0 0 0 0 0 0 0 0 0 0 127 0" result="hardAlpha"/>
<feOffset dy="0.5"/>
<feComposite in2="hardAlpha" operator="out"/>
<feColorMatrix type="matrix" values="0 0 0 0 0 0 0 0 0 0 0 0 0 0 0 0 0 0 0.15 0"/>
<feBlend mode="normal" in2="BackgroundImageFix" result="effect1_dropShadow_33222_339365"/>
<feBlend mode="normal" in="SourceGraphic" in2="effect1_dropShadow_33222_339365" result="shape"/>
</filter>
<filter id="filter1_f_33222_339365" x="187" y="10.9995" width="20.001" height="22.001" filterUnits="userSpaceOnUse" color-interpolation-filters="sRGB">
<feFlood flood-opacity="0" result="BackgroundImageFix"/>
<feBlend mode="normal" in="SourceGraphic" in2="BackgroundImageFix" result="shape"/>
<feGaussianBlur stdDeviation="0.5" result="effect1_foregroundBlur_33222_339365"/>
</filter>
<filter id="filter2_d_33222_339365" x="203.302" y="20" width="21.6982" height="35.5" filterUnits="userSpaceOnUse" color-interpolation-filters="sRGB">
<feFlood flood-opacity="0" result="BackgroundImageFix"/>
<feColorMatrix in="SourceAlpha" type="matrix" values="0 0 0 0 0 0 0 0 0 0 0 0 0 0 0 0 0 0 127 0" result="hardAlpha"/>
<feOffset dy="0.5"/>
<feComposite in2="hardAlpha" operator="out"/>
<feColorMatrix type="matrix" values="0 0 0 0 0 0 0 0 0 0 0 0 0 0 0 0 0 0 0.15 0"/>
<feBlend mode="normal" in2="BackgroundImageFix" result="effect1_dropShadow_33222_339365"/>
<feBlend mode="normal" in="SourceGraphic" in2="effect1_dropShadow_33222_339365" result="shape"/>
</filter>
<radialGradient id="paint0_radial_33222_339365" cx="0" cy="0" r="1" gradientUnits="userSpaceOnUse" gradientTransform="translate(213.278 75.9149) rotate(90.6187) scale(72.0893 397.857)">
<stop offset="0.124566" stop-color="#CBDEFF"/>
<stop offset="0.293125" stop-color="#C9DEFF" stop-opacity="0.47"/>
<stop offset="0.659421" stop-color="#CFE2FF" stop-opacity="0"/>
</radialGradient>
<linearGradient id="paint1_linear_33222_339365" x1="185" y1="-9.35519" x2="160.855" y2="23.5923" gradientUnits="userSpaceOnUse">
<stop offset="0.0435924" stop-color="#ADC6FF"/>
<stop offset="1" stop-color="#EBF0FF"/>
</linearGradient>
<linearGradient id="paint2_linear_33222_339365" x1="205" y1="4.85714" x2="172.429" y2="33.1429" gradientUnits="userSpaceOnUse">
<stop stop-color="#608FFF"/>
<stop offset="1" stop-color="#AEC7FF"/>
</linearGradient>
<linearGradient id="paint3_linear_33222_339365" x1="220.286" y1="-9.39166" x2="266.007" y2="51.1418" gradientUnits="userSpaceOnUse">
<stop offset="0.0435924" stop-color="#CDDCFF"/>
<stop offset="1" stop-color="#ECF2FF"/>
</linearGradient>
<linearGradient id="paint4_linear_33222_339365" x1="238.564" y1="23.5" x2="185.894" y2="60.0886" gradientUnits="userSpaceOnUse">
<stop stop-color="#487FFF"/>
<stop offset="1" stop-color="#AEC7FF"/>
</linearGradient>
</defs>
</svg>
