<svg width="76" height="94" viewBox="0 0 76 94" fill="none" xmlns="http://www.w3.org/2000/svg">
<path d="M59.845 46.2456L75.3086 59.4183L32.354 64.0002L34.454 55.4092L59.845 46.2456Z" fill="url(#paint0_linear_33222_339353)"/>
<path d="M34.0341 62.7122L33.9193 61.5725L33.8826 61.5762L33.8462 61.5822L34.0341 62.7122ZM12.2084 55.4843L13.0718 54.7315L13.0261 54.6791L12.9744 54.6326L12.2084 55.4843ZM12.618 57.8397L13.6036 58.4235L13.6036 58.4235L12.618 57.8397ZM7.56487 59.749L7.33821 58.6262H7.33821L7.56487 59.749ZM6.58182 60.0427L6.32692 61.1595L6.3271 61.1595L6.58182 60.0427ZM30.8161 62.851L30.8319 61.7056L30.8248 61.7056L30.8161 62.851ZM31.2761 62.8536L31.2805 61.7081L31.2734 61.7082L31.2761 62.8536ZM59.272 32.2079C59.272 47.5839 48.1019 60.1442 33.9193 61.5725L34.1489 63.8518C49.578 62.298 61.5629 48.6822 61.5629 32.2079H59.272ZM31.2087 2.70747C46.6564 2.70747 59.272 15.8628 59.272 32.2079H61.5629C61.5629 14.7025 48.0241 0.416557 31.2087 0.416557V2.70747ZM3.14545 32.2079C3.14545 15.8628 15.761 2.70747 31.2087 2.70747V0.416557C14.3933 0.416557 0.854545 14.7025 0.854545 32.2079H3.14545ZM12.9744 54.6326C6.96432 49.2269 3.14545 41.1926 3.14545 32.2079H0.854545C0.854545 41.8493 4.95451 50.5005 11.4424 56.3359L12.9744 54.6326ZM13.6036 58.4235C13.9854 57.7789 14.1535 57.0914 13.9924 56.3679C13.8451 55.706 13.4519 55.1675 13.0718 54.7315L11.3451 56.2371C11.6545 56.592 11.7362 56.7754 11.7562 56.8656C11.7626 56.8942 11.7907 56.9889 11.6325 57.2559L13.6036 58.4235ZM7.79153 60.8718C8.5707 60.7145 9.74339 60.4789 10.8016 60.1466C11.3305 59.9805 11.8698 59.7786 12.336 59.5306C12.7734 59.2978 13.2919 58.9497 13.6036 58.4235L11.6325 57.2559C11.6451 57.2348 11.5794 57.338 11.2597 57.5082C10.9687 57.6631 10.5779 57.8157 10.1153 57.9609C9.1908 58.2512 8.13605 58.4652 7.33821 58.6262L7.79153 60.8718ZM6.83671 58.926C6.85572 58.9303 6.90842 58.943 6.97656 58.9705C7.02361 58.9894 7.19597 59.0603 7.35952 59.2322C7.57085 59.4542 7.76066 59.8547 7.62813 60.3222C7.52938 60.6706 7.29986 60.8543 7.23988 60.901C7.15389 60.9678 7.07978 61.0042 7.05321 61.0169C7.01976 61.0328 6.99563 61.0417 6.98797 61.0445C6.97336 61.0498 6.97561 61.0482 7.00602 61.04C7.14185 61.0036 7.39729 60.9514 7.79153 60.8718L7.33821 58.6262C6.98345 58.6978 6.63662 58.7672 6.4128 58.8272C6.3533 58.8432 6.2808 58.8641 6.20811 58.8904C6.16963 58.9043 5.99896 58.9639 5.83342 59.0926C5.76181 59.1483 5.5252 59.3407 5.42408 59.6974C5.28919 60.1732 5.48137 60.5817 5.69997 60.8115C5.8708 60.991 6.05535 61.0691 6.1197 61.0951C6.20513 61.1295 6.28023 61.1488 6.32692 61.1595L6.83671 58.926ZM30.8248 61.7056C19.1041 61.6161 10.7662 59.8223 6.83654 58.926L6.3271 61.1595C10.3362 62.0739 18.854 63.9052 30.8073 63.9964L30.8248 61.7056ZM31.2087 61.7082C31.0829 61.7082 30.9573 61.7074 30.8319 61.7056L30.8003 63.9963C30.9362 63.9982 31.0723 63.9991 31.2087 63.9991V61.7082ZM31.2734 61.7082C31.2518 61.7082 31.2303 61.7082 31.2087 61.7082V63.9991C31.2321 63.9991 31.2555 63.9991 31.2788 63.9991L31.2734 61.7082ZM31.7365 61.709C31.5839 61.709 31.4319 61.7087 31.2805 61.7082L31.2717 63.9991C31.4261 63.9996 31.581 63.9999 31.7365 63.9999V61.709ZM33.8462 61.5822C33.3758 61.6604 32.6879 61.709 31.7365 61.709V63.9999C32.7461 63.9999 33.5749 63.9497 34.222 63.8421L33.8462 61.5822Z" fill="url(#paint1_linear_33222_339353)"/>
<path fill-rule="evenodd" clip-rule="evenodd" d="M36.4861 62.7123C52.166 61.2104 64.4278 48.0008 64.4278 31.9273C64.4278 14.8466 50.5812 1 33.5005 1C16.4199 1 2.57324 14.8466 2.57324 31.9273C2.57324 41.4121 6.84292 49.8997 13.5651 55.5729C14.5466 56.5727 14.9078 57.2492 13.8187 57.7937C12.4487 58.4787 9.81611 59.0011 7.60405 59.44C6.50332 59.6584 5.50672 59.8561 4.82164 60.043C9.01373 60.9543 20.3661 62.7518 32.9846 62.8503C33.1562 62.8531 33.3282 62.8545 33.5005 62.8545C33.561 62.8545 33.6215 62.8544 33.6819 62.854C33.8085 62.8544 33.9352 62.8546 34.062 62.8546C35.0951 62.8546 35.8953 62.8052 36.4861 62.7123Z" fill="url(#paint2_linear_33222_339353)"/>
<g filter="url(#filter0_d_33222_339353)">
<path d="M36.6945 39.056V39.056C36.6945 39.87 36.0346 40.5299 35.2205 40.5299H31.8733C30.754 40.5299 29.8466 39.6225 29.8466 38.5032V38.5032C29.8466 35.4816 30.2555 33.6401 32.9271 30.7649C35.5988 27.8897 38.4054 26.2258 38.4054 23.1005C38.4054 19.9752 36.4548 18.421 33.3733 18.421C30.7617 18.421 28.871 19.5576 27.9712 21.7807C27.2402 23.5865 25.8021 25.2379 23.8539 25.2379V25.2379C21.906 25.2379 20.2893 23.6372 20.7526 21.7452C22.1122 16.1927 26.6657 11.3091 33.4759 11.3091C41.1454 11.3091 45.5271 15.4361 45.5271 23.6901C45.5271 28.4066 41.4779 30.9496 38.9532 33.1232C36.4286 35.2968 36.7619 37.2502 36.6945 39.056ZM36.7639 47.9413C36.7639 49.8515 35.2154 51.4 33.3053 51.4V51.4C31.3951 51.4 29.8466 49.8515 29.8466 47.9413V47.1942C29.8466 45.284 31.3951 43.7356 33.3053 43.7356V43.7356C35.2154 43.7356 36.7639 45.284 36.7639 47.1942V47.9413Z" fill="#F1FCFF"/>
</g>
<defs>
<filter id="filter0_d_33222_339353" x="20.6729" y="11.3091" width="24.8545" height="40.6635" filterUnits="userSpaceOnUse" color-interpolation-filters="sRGB">
<feFlood flood-opacity="0" result="BackgroundImageFix"/>
<feColorMatrix in="SourceAlpha" type="matrix" values="0 0 0 0 0 0 0 0 0 0 0 0 0 0 0 0 0 0 127 0" result="hardAlpha"/>
<feOffset dy="0.572727"/>
<feComposite in2="hardAlpha" operator="out"/>
<feColorMatrix type="matrix" values="0 0 0 0 0 0 0 0 0 0 0 0 0 0 0 0 0 0 0.15 0"/>
<feBlend mode="normal" in2="BackgroundImageFix" result="effect1_dropShadow_33222_339353"/>
<feBlend mode="normal" in="SourceGraphic" in2="effect1_dropShadow_33222_339353" result="shape"/>
</filter>
<linearGradient id="paint0_linear_33222_339353" x1="39.4177" y1="74.882" x2="58.0637" y2="45.983" gradientUnits="userSpaceOnUse">
<stop offset="0.288084" stop-color="#CBDEFF"/>
<stop offset="0.82724" stop-color="#CBDEFF" stop-opacity="0"/>
</linearGradient>
<linearGradient id="paint1_linear_33222_339353" x1="22.8634" y1="-21.9334" x2="-28.2901" y2="47.0472" gradientUnits="userSpaceOnUse">
<stop offset="0.0435924" stop-color="#CDDCFF"/>
<stop offset="1" stop-color="#ECF2FF"/>
</linearGradient>
<linearGradient id="paint2_linear_33222_339353" x1="62.1369" y1="49.359" x2="6.52553" y2="19.0984" gradientUnits="userSpaceOnUse">
<stop stop-color="#487FFF"/>
<stop offset="1" stop-color="#AEC7FF"/>
</linearGradient>
</defs>
</svg>
