<svg xmlns="http://www.w3.org/2000/svg" width="48" height="48" fill="none" viewBox="0 0 48 48"><path fill="#BD4206" fill-rule="evenodd" d="M43.857 24c0-10.967-8.89-19.857-19.857-19.857-10.967 0-19.857 8.89-19.857 19.857 0 10.967 8.89 19.857 19.857 19.857 10.967 0 19.857-8.89 19.857-19.857ZM24 1.143c12.623 0 22.857 10.233 22.857 22.857 0 12.623-10.234 22.857-22.857 22.857C11.376 46.857 1.143 36.623 1.143 24 1.143 11.376 11.376 1.143 24 1.143Zm9.703 32.918a1.5 1.5 0 0 0 0-2.122l-7.44-7.439 7.44-7.44a1.5 1.5 0 0 0-2.121-2.12l-7.44 7.439-7.439-7.44a1.5 1.5 0 0 0-2.121 2.122l7.44 7.439-7.44 7.44a1.5 1.5 0 0 0 2.121 2.12l7.44-7.439 7.439 7.44a1.5 1.5 0 0 0 2.121 0Z" clip-rule="evenodd"/></svg>