<svg xmlns="http://www.w3.org/2000/svg" width="48" height="48" fill="none" viewBox="0 0 48 48"><path stroke="#2F6CF6" stroke-linecap="round" stroke-linejoin="round" stroke-width="3" d="M45.357 24c0-11.795-9.562-21.357-21.357-21.357C12.204 2.643 2.643 12.205 2.643 24S12.204 45.357 24 45.357c11.795 0 21.357-9.562 21.357-21.357Z"/><path fill="#2F6CF6" fill-rule="evenodd" d="M24 36a1.5 1.5 0 0 1-1.5-1.5v-12a1.5 1.5 0 0 1 3 0v12A1.5 1.5 0 0 1 24 36ZM22 15a2 2 0 0 0 2 2h.023a2 2 0 1 0 0-4H24a2 2 0 0 0-2 2Z" clip-rule="evenodd"/></svg>