<svg xmlns="http://www.w3.org/2000/svg" width="10" height="10" fill="none" viewBox="0 0 10 10"><rect width="10" height="10" fill="#3D6DDA" rx="1"/><path fill="#CBDAFD" d="M3.037 7.526 1.178 4.954a.2.2 0 0 1 .163-.317h3.717a.2.2 0 0 1 .162.317L3.361 7.526a.2.2 0 0 1-.324 0ZM7.75 4.25v3.4a.1.1 0 0 1-.1.1h-.8a.1.1 0 0 1-.1-.1v-3.4H5.673a.1.1 0 0 1-.075-.167l1.576-1.75a.1.1 0 0 1 .149 0L8.9 4.083a.1.1 0 0 1-.075.167H7.75Z"/><path fill="#3D6DDA" d="M1 .8h8V-.8H1V.8Zm8.2.2v8h1.6V1H9.2ZM9 9.2H1v1.6h8V9.2ZM.8 9V1H-.8v8H.8Zm.2.2A.2.2 0 0 1 .8 9H-.8A1.8 1.8 0 0 0 1 10.8V9.2ZM9.2 9a.2.2 0 0 1-.2.2v1.6A1.8 1.8 0 0 0 10.8 9H9.2ZM9 .8c.11 0 .2.09.2.2h1.6A1.8 1.8 0 0 0 9-.8V.8ZM1-.8A1.8 1.8 0 0 0-.8 1H.8C.8.89.89.8 1 .8V-.8Z"/></svg>