<svg xmlns="http://www.w3.org/2000/svg" width="10" height="10" fill="none" viewBox="0 0 10 10"><rect width="10" height="10" fill="#3D6DDA" rx="1"/><path fill="#CBDAFD" d="M2.838 7.393.979 4.82a.2.2 0 0 1 .162-.317H4.86a.2.2 0 0 1 .162.317L3.162 7.393a.2.2 0 0 1-.324 0Z"/><path fill="#CBDAFD" d="M4.498 2.383h4.27a.2.2 0 0 1 .14.341L7.374 4.26a.09.09 0 0 0-.026.064v3.09a.2.2 0 0 1-.2.2l-1.027.003a.2.2 0 0 1-.201-.2V4.324a.09.09 0 0 0-.026-.064L4.357 2.724a.2.2 0 0 1 .141-.341Z"/><path fill="#3D6DDA" d="M1 .8h8V-.8H1V.8Zm8.2.2v8h1.6V1H9.2ZM9 9.2H1v1.6h8V9.2ZM.8 9V1H-.8v8H.8Zm.2.2A.2.2 0 0 1 .8 9H-.8A1.8 1.8 0 0 0 1 10.8V9.2ZM9.2 9a.2.2 0 0 1-.2.2v1.6A1.8 1.8 0 0 0 10.8 9H9.2ZM9 .8c.11 0 .2.09.2.2h1.6A1.8 1.8 0 0 0 9-.8V.8ZM1-.8A1.8 1.8 0 0 0-.8 1H.8C.8.89.89.8 1 .8V-.8Z"/></svg>