<svg xmlns="http://www.w3.org/2000/svg" width="10" height="10" fill="none" viewBox="0 0 10 10"><path fill="#8C8C8C" d="M4.846 6.566 2.773 4.078a.2.2 0 0 1 .154-.328h4.146a.2.2 0 0 1 .154.328L5.154 6.566a.2.2 0 0 1-.308 0ZM1 .8h8V-.8H1V.8Zm8.2.2v8h1.6V1H9.2ZM9 9.2H1v1.6h8V9.2ZM.8 9V1H-.8v8H.8Zm.2.2A.2.2 0 0 1 .8 9H-.8A1.8 1.8 0 0 0 1 10.8V9.2ZM9.2 9a.2.2 0 0 1-.2.2v1.6A1.8 1.8 0 0 0 10.8 9H9.2ZM9 .8c.11 0 .2.09.2.2h1.6A1.8 1.8 0 0 0 9-.8V.8ZM1-.8A1.8 1.8 0 0 0-.8 1H.8C.8.89.89.8 1 .8V-.8Z"/></svg>