<svg width="24" height="24" viewBox="0 0 24 24" fill="none" xmlns="http://www.w3.org/2000/svg">
<path fill-rule="evenodd" clip-rule="evenodd" d="M0.528527 15.4839C0.761615 15.1415 1.22815 15.0528 1.57055 15.2859L7.39445 19.2505L18.2623 3.28555C18.4954 2.94314 18.9619 2.85452 19.3043 3.08761C19.6467 3.3207 19.7353 3.78723 19.5023 4.12964L8.21238 20.7145C7.97929 21.0569 7.51276 21.1455 7.17035 20.9125L0.726467 16.5259C0.38406 16.2928 0.295439 15.8263 0.528527 15.4839ZM11.6427 20.0954C11.6427 19.6812 11.9784 19.3454 12.3927 19.3454H19.7103H22.8464C23.2606 19.3454 23.5964 19.6812 23.5964 20.0954C23.5964 20.5096 23.2606 20.8454 22.8464 20.8454H19.7103H12.3927C11.9784 20.8454 11.6427 20.5096 11.6427 20.0954ZM16.5792 13.7716C16.165 13.7716 15.8292 14.1074 15.8292 14.5216C15.8292 14.9358 16.165 15.2716 16.5792 15.2716H19.7153H22.8514C23.2656 15.2716 23.6014 14.9358 23.6014 14.5216C23.6014 14.1074 23.2656 13.7716 22.8514 13.7716H19.7153H16.5792Z" fill="black"/>
</svg>
