<svg width="24" height="24" viewBox="0 0 24 24" fill="none" xmlns="http://www.w3.org/2000/svg">
<path fill-rule="evenodd" clip-rule="evenodd" d="M8.58984 2.23486C8.17563 2.23486 7.83984 2.57065 7.83984 2.98486C7.83984 3.39908 8.17563 3.73486 8.58984 3.73486H19.0783C19.2011 3.73486 19.3008 3.83447 19.3008 3.95734V16.1133C19.3008 16.5275 19.6365 16.8633 20.0508 16.8633C20.465 16.8633 20.8008 16.5275 20.8008 16.1133V3.95734C20.8008 3.00604 20.0296 2.23486 19.0783 2.23486H8.58984ZM5.67169 5.6377C4.7204 5.6377 3.94922 6.40887 3.94922 7.36017V16.2702C3.94922 16.6921 4.10403 17.0993 4.3843 17.4146L7.73755 21.187C8.06533 21.5557 8.53548 21.7662 9.02884 21.7651L15.4003 21.7507C16.3501 21.7486 17.1189 20.978 17.1189 20.0283V7.36017C17.1189 6.40887 16.3477 5.6377 15.3964 5.6377H5.67169ZM5.44922 7.36017C5.44922 7.2373 5.54882 7.1377 5.67169 7.1377H15.3964C15.5193 7.1377 15.6189 7.2373 15.6189 7.36017V20.0283C15.6189 20.1509 15.5196 20.2505 15.3969 20.2507L9.82536 20.2633V17.1262C9.82536 16.4435 9.27187 15.89 8.58912 15.89H5.44922V7.36017ZM8.32536 17.39V19.5905L6.36935 17.39H8.32536Z" fill="rgba(0,0,0,.6)"/>
</svg>
